<svg width="465" height="112" viewBox="0 0 465 112" fill="none" xmlns="http://www.w3.org/2000/svg">
<path d="M141.798 33.4545C141.798 28.5455 143.623 24 147.091 20.5455C150.558 17.0909 155.121 15.2727 160.048 15.2727C167.895 15.2727 173.918 19.6364 176.655 26L169.903 28.9091C168.26 24.9091 164.428 22.3636 160.048 22.3636C153.843 22.3636 149.098 27.2727 149.098 33.4545C149.098 36.3636 150.193 39.2727 152.383 41.4545C154.391 43.6364 157.311 44.7273 160.23 44.7273C164.975 44.7273 168.443 41.8182 170.085 37.8182L176.837 40.7273C174.1 47.0909 168.26 51.6364 160.048 51.6364C155.121 51.6364 150.558 49.8182 147.091 46.3636C143.806 42.9091 141.798 38.3636 141.798 33.4545ZM196.912 15.2727C187.787 15.2727 179.392 22.1818 179.392 33.4545C179.392 44.5455 187.97 51.6364 196.912 51.6364C201.474 51.6364 205.672 49.6364 208.592 46.1818V50.9091H216.074V16H208.592V20.5455C205.854 17.2727 201.474 15.2727 196.912 15.2727ZM197.824 22.1818C204.212 22.1818 208.957 27.2727 208.957 33.4545C208.957 39.6364 204.212 44.7273 198.007 44.7273C191.802 44.7273 186.875 39.6364 186.875 33.4545C186.875 27.2727 191.62 22.1818 197.824 22.1818ZM222.461 16H229.943V21.4545C231.768 17.8182 235.236 16 240.163 16H243.448V23.0909H239.068C232.681 23.0909 230.126 26.3636 230.126 33.6364V50.9091H222.461V16ZM262.975 15.2727C253.85 15.2727 245.456 22.1818 245.456 33.4545C245.456 44.5455 254.033 51.6364 262.793 51.6364C267.355 51.6364 271.735 49.6364 274.472 46V50.3636C274.472 56.3636 270.64 61.0909 264.253 61.0909C258.96 61.0909 255.493 58.7273 253.85 54.7273L246.915 58C249.653 63.6364 255.493 67.8182 264.253 67.8182C275.385 67.8182 281.954 60.3636 281.954 50V16H274.472V20.7273C271.735 17.2727 267.537 15.2727 262.975 15.2727ZM263.888 22.1818C270.275 22.1818 275.02 27.2727 275.02 33.4545C275.02 39.6364 270.275 44.7273 263.888 44.7273C257.683 44.7273 252.755 39.6364 252.755 33.4545C252.755 27.2727 257.683 22.1818 263.888 22.1818ZM305.314 15.4545C295.277 15.4545 287.064 23.4545 287.064 33.4545C287.064 38.1818 288.889 42.9091 292.357 46.3636C295.824 49.8182 300.386 51.6364 305.314 51.6364C315.351 51.6364 323.563 43.6364 323.563 33.6364C323.381 23.6364 315.351 15.4545 305.314 15.4545ZM305.131 22.3636C311.154 22.3636 315.899 27.4545 315.899 33.4545C315.899 39.4545 311.154 44.5455 305.131 44.5455C299.109 44.5455 294.364 39.4545 294.364 33.4545C294.364 27.4545 299.109 22.3636 305.131 22.3636ZM324.293 16H331.958L339.988 40.7273L349.113 16H356.595L365.537 40.7273L373.749 16H381.414L369.187 50.9091H361.887L352.58 26L343.273 50.9091H335.973L324.293 16ZM393.459 3.63636C392.729 1.81818 390.904 0.545455 388.714 0.545455C387.437 0.545455 385.977 1.09091 385.064 2C384.152 2.90909 383.604 4.18182 383.604 5.63636C383.604 7.63636 384.882 9.45455 386.707 10.3636C388.531 11.0909 390.721 10.7273 392.181 9.27273C393.824 7.81818 394.189 5.63636 393.459 3.63636ZM392.546 16H385.064V50.9091H392.546V16ZM396.196 43.6364L402.949 40C404.956 43.2727 408.058 45.0909 412.256 45.0909C416.636 45.0909 418.826 42.9091 418.826 40.5455C418.826 37.6364 414.628 37.0909 410.066 36C404.044 34.7273 397.839 32.9091 397.839 25.6364C397.839 20.1818 403.131 15.0909 411.526 15.0909C418.278 15.0909 422.841 17.6364 425.76 21.8182L419.373 25.2727C417.731 22.7273 415.176 21.2727 411.343 21.2727C407.146 21.2727 405.321 23.0909 405.321 25.4545C405.321 28 408.241 28.5455 413.716 29.6364C419.556 30.9091 426.308 32.9091 426.308 40.1818C426.308 45.4545 421.563 51.4545 411.891 51.2727C404.226 51.6364 399.116 48.9091 396.196 43.6364ZM447.112 15.2727C436.893 15.2727 428.863 23.2727 428.863 33.4545C428.863 43.6364 436.345 51.4545 447.295 51.4545C455.142 51.4545 460.617 47.6364 463.719 42L457.515 38.5455C455.69 42.5455 451.675 44.9091 447.295 44.9091C441.272 44.9091 437.075 41.4545 435.98 36H464.997V33.0909C465.179 22.7273 457.515 15.2727 447.112 15.2727ZM457.515 29.6364H436.528C437.988 24.9091 442.185 21.8182 447.112 21.8182C452.587 21.8182 456.42 24.7273 457.515 29.6364ZM51.0985 10.1818H20.4394V0H51.0985V10.1818ZM0 40.7273H30.6591V50.9091H0V40.7273ZM20.4394 112H51.0985V101.818H20.4394V112ZM61.3183 10.1818V0H112.417V10.1818H61.3183ZM61.3183 30.5455H112.417V20.3636H61.3183V30.5455ZM112.417 50.9091H61.3183V40.7273H112.417V50.9091ZM51.0985 61.0909H0V71.2727H51.0985V61.0909ZM112.234 91.6364H61.1358V81.4545H112.234V91.6364Z" fill="#292929"/>
</svg>
