<svg width="991" height="219" viewBox="0 0 991 219" fill="none" xmlns="http://www.w3.org/2000/svg">
<path d="M123.896 219H72.8799C64.7087 219 57.6137 218.2 51.5957 216.601C45.5777 215.001 40.6085 212.4 36.6885 208.801C32.7685 205.201 29.8416 200.402 27.9092 194.402C26.032 188.46 25.0938 181.117 25.0938 172.375V147.691C25.0937 138.55 23.244 131.979 19.5449 127.979C15.8457 123.98 9.33079 121.979 0 121.979V97.2959C9.33079 97.2959 15.8457 95.3244 19.5449 91.3818C23.244 87.3822 25.0937 80.783 25.0938 71.584V46.9863C25.0938 38.2442 26.032 30.9013 27.9092 24.959C29.8416 18.9595 32.7685 14.1602 36.6885 10.5605C40.6085 6.96089 45.5777 4.3606 51.5957 2.76074C57.6137 1.16094 64.7087 0.361328 72.8799 0.361328V22.2256C66.4753 22.2256 61.4784 23.197 57.8896 25.1396C54.301 27.0823 51.789 28.559 50.3535 32.6729C48.9732 36.7296 48.2832 41.9292 48.2832 48.2715V79.4688C48.2832 83.8682 47.6477 87.9536 46.3779 91.7246C45.1081 95.4385 42.7619 98.6676 39.3389 101.41C35.9157 104.153 31.029 106.295 24.6797 107.838C24.115 107.975 23.5348 108.103 22.9404 108.228V111.133C23.5348 111.258 24.115 111.386 24.6797 111.523C31.029 113.009 35.9157 115.151 39.3389 117.951C42.7618 120.694 45.1081 123.951 46.3779 127.722C47.6478 131.436 48.2832 135.493 48.2832 139.893V171.09C48.2832 177.375 48.9732 182.546 50.3535 186.603C51.789 190.716 54.3009 192.194 57.8896 194.137C61.4784 196.136 66.4754 197.136 72.8799 197.136H98.3877V0.361328H123.896V219ZM276.942 0.361328C285.114 0.361328 292.209 1.16091 298.227 2.76074C304.245 4.36061 309.214 6.96086 313.134 10.5605C317.054 14.1602 319.98 18.9597 321.912 24.959C323.789 30.9013 324.729 38.2442 324.729 46.9863V71.584C324.729 80.7831 326.578 87.3822 330.277 91.3818C333.977 95.3244 340.491 97.2959 349.822 97.2959V121.979C340.491 121.979 333.977 123.98 330.277 127.979C326.578 131.979 324.729 138.55 324.729 147.691V172.375C324.729 181.117 323.789 188.46 321.912 194.402C319.98 200.402 317.054 205.201 313.134 208.801C309.214 212.4 304.245 215.001 298.227 216.601C292.209 218.2 285.114 219 276.942 219H200.419V197.136H276.942C283.347 197.136 288.344 196.137 291.933 194.137C295.521 192.194 298.033 190.716 299.469 186.603C300.849 182.546 301.539 177.375 301.539 171.09V139.893C301.539 135.493 302.174 131.436 303.444 127.722C304.714 123.951 307.06 120.694 310.483 117.951C313.907 115.151 318.793 113.009 325.143 111.523C325.707 111.386 326.287 111.258 326.882 111.133V108.228C326.288 108.103 325.707 107.975 325.143 107.838C318.793 106.295 313.907 104.153 310.483 101.41C307.06 98.6675 304.714 95.4386 303.444 91.7246C302.175 87.9536 301.539 83.8683 301.539 79.4688V48.2715C301.539 41.9292 300.849 36.7296 299.469 32.6729C298.033 28.5591 295.521 27.0823 291.933 25.1396C288.344 23.197 283.347 22.2256 276.942 22.2256H174.911V87.8164H225.927V109.681H174.911V219H149.403V0.361328H276.942Z" fill="white"/>
<path d="M419.305 54.2361C417.793 54.2361 416.497 53.7027 415.417 52.6358C414.338 51.5689 413.806 50.2687 413.823 48.735C413.806 47.2347 414.338 45.9511 415.417 44.8842C416.497 43.8173 417.793 43.2839 419.305 43.2839C420.767 43.2839 422.038 43.8173 423.117 44.8842C424.214 45.9511 424.77 47.2347 424.787 48.735C424.77 49.7519 424.504 50.6771 423.989 51.5106C423.491 52.3441 422.827 53.0109 421.996 53.511C421.182 53.9944 420.285 54.2361 419.305 54.2361Z" fill="#4578ED"/>
<path d="M454.932 0.0750153L438.486 61.3876H430.587L447.033 0.0750153H454.932Z" fill="#4578ED"/>
<path d="M470.332 2.47551V53.686H461.087V2.47551H470.332Z" fill="#F5F5F5"/>
<path d="M496.59 68.8892C493.351 68.8892 490.568 68.4474 488.243 67.5639C485.917 66.697 484.048 65.5301 482.636 64.0632C481.224 62.5962 480.244 60.9709 479.695 59.1872L487.819 57.2118C488.184 57.9619 488.716 58.7037 489.414 59.4372C490.112 60.1874 491.05 60.8042 492.23 61.2876C493.426 61.7877 494.929 62.0378 496.74 62.0378C499.298 62.0378 501.416 61.4126 503.094 60.1624C504.772 58.9288 505.611 56.895 505.611 54.0611V46.7846H505.162C504.697 47.7181 504.016 48.6767 503.119 49.6602C502.239 50.6437 501.067 51.4689 499.606 52.1357C498.16 52.8025 496.341 53.1359 494.148 53.1359C491.208 53.1359 488.542 52.4441 486.149 51.0605C483.774 49.6602 481.88 47.5764 480.468 44.8092C479.072 42.0253 478.375 38.5413 478.375 34.3571C478.375 30.1395 479.072 26.5805 480.468 23.6799C481.88 20.7626 483.782 18.5538 486.174 17.0535C488.567 15.5365 491.233 14.778 494.173 14.778C496.416 14.778 498.26 15.1615 499.705 15.9283C501.167 16.6784 502.33 17.5869 503.194 18.6538C504.058 19.7041 504.714 20.6959 505.162 21.6294H505.661V15.2781H514.557V54.3112C514.557 57.5952 513.776 60.3124 512.214 62.4628C510.653 64.6133 508.518 66.2219 505.81 67.2888C503.103 68.3557 500.029 68.8892 496.59 68.8892ZM496.665 46.0345C498.576 46.0345 500.204 45.5677 501.549 44.6342C502.895 43.7006 503.917 42.3587 504.614 40.6083C505.312 38.858 505.661 36.7576 505.661 34.3071C505.661 31.8899 505.312 29.7728 504.614 27.9557C503.933 26.1387 502.92 24.7301 501.574 23.7299C500.245 22.713 498.609 22.2046 496.665 22.2046C494.655 22.2046 492.977 22.7297 491.632 23.7799C490.286 24.8301 489.273 26.2721 488.591 28.1058C487.91 29.9228 487.57 31.9899 487.57 34.3071C487.57 36.6575 487.91 38.7163 488.591 40.4833C489.289 42.2337 490.311 43.6006 491.657 44.5842C493.019 45.551 494.688 46.0345 496.665 46.0345Z" fill="#F5F5F5"/>
<path d="M532.822 31.1814V53.686H523.802V15.2781H532.424V21.8045H532.872C533.753 19.654 535.156 17.9454 537.083 16.6784C539.027 15.4115 541.428 14.778 544.285 14.778C546.926 14.778 549.227 15.3448 551.187 16.4784C553.164 17.612 554.693 19.254 555.773 21.4044C556.869 23.5548 557.409 26.1637 557.392 29.231V53.686H548.372V30.6313C548.372 28.0641 547.707 26.0554 546.378 24.6051C545.066 23.1548 543.247 22.4296 540.921 22.4296C539.343 22.4296 537.939 22.7797 536.71 23.4798C535.497 24.1633 534.542 25.1552 533.844 26.4554C533.163 27.7557 532.822 29.331 532.822 31.1814Z" fill="#F5F5F5"/>
<path d="M577.576 54.4612C575.151 54.4612 572.967 54.0278 571.023 53.1609C569.096 52.2774 567.567 50.9771 566.438 49.2601C565.325 47.5431 564.768 45.426 564.768 42.9088C564.768 40.7417 565.167 38.9497 565.964 37.5327C566.762 36.1158 567.85 34.9822 569.229 34.132C570.608 33.2818 572.161 32.64 573.888 32.2066C575.633 31.7565 577.435 31.4315 579.296 31.2314C581.539 30.998 583.358 30.7897 584.753 30.6063C586.149 30.4063 587.162 30.1062 587.793 29.7061C588.441 29.2894 588.765 28.6476 588.765 27.7807V27.6307C588.765 25.747 588.209 24.2883 587.095 23.2548C585.982 22.2212 584.379 21.7045 582.286 21.7045C580.077 21.7045 578.324 22.1879 577.028 23.1548C575.749 24.1216 574.885 25.2635 574.437 26.5805L566.014 25.3802C566.679 23.0464 567.775 21.096 569.303 19.529C570.832 17.9454 572.701 16.7618 574.91 15.9783C577.12 15.1781 579.562 14.778 582.236 14.778C584.08 14.778 585.916 14.9947 587.743 15.4282C589.571 15.8616 591.24 16.5784 592.752 17.5786C594.264 18.5622 595.476 19.9041 596.39 21.6044C597.32 23.3048 597.786 25.4302 597.786 27.9808V53.686H589.114V48.41H588.815C588.267 49.4768 587.494 50.477 586.497 51.4106C585.517 52.3274 584.28 53.0692 582.785 53.636C581.306 54.1861 579.57 54.4612 577.576 54.4612ZM579.919 47.8098C581.73 47.8098 583.3 47.4514 584.629 46.7346C585.958 46.0011 586.979 45.0343 587.694 43.834C588.424 42.6338 588.79 41.3252 588.79 39.9082V35.3823C588.508 35.6157 588.026 35.8324 587.345 36.0324C586.68 36.2324 585.933 36.4075 585.102 36.5575C584.271 36.7075 583.449 36.8409 582.635 36.9576C581.821 37.0743 581.115 37.1743 580.517 37.2577C579.171 37.441 577.967 37.7411 576.904 38.1578C575.84 38.5746 575.002 39.158 574.387 39.9082C573.772 40.6417 573.465 41.5919 573.465 42.7588C573.465 44.4258 574.071 45.6844 575.284 46.5346C576.497 47.3847 578.042 47.8098 579.919 47.8098Z" fill="#F5F5F5"/>
<path d="M623.552 54.4362C619.731 54.4362 616.45 53.5944 613.709 51.9107C610.984 50.227 608.883 47.9015 607.404 44.9342C605.942 41.9503 605.211 38.5163 605.211 34.6321C605.211 30.7313 605.959 27.2889 607.454 24.305C608.949 21.3044 611.059 18.9706 613.784 17.3036C616.525 15.6199 619.764 14.778 623.502 14.778C626.608 14.778 629.358 15.3532 631.75 16.5034C634.159 17.637 636.078 19.2456 637.506 21.3294C638.935 23.3965 639.749 25.8136 639.948 28.5809H631.326C630.977 26.7305 630.147 25.1885 628.834 23.9549C627.539 22.7047 625.803 22.0795 623.626 22.0795C621.782 22.0795 620.163 22.5796 618.767 23.5798C617.372 24.5634 616.284 25.9803 615.503 27.8307C614.739 29.6811 614.357 31.8982 614.357 34.4821C614.357 37.0993 614.739 39.3498 615.503 41.2335C616.267 43.1005 617.339 44.5425 618.717 45.5594C620.113 46.5596 621.749 47.0597 623.626 47.0597C624.955 47.0597 626.143 46.8096 627.19 46.3095C628.253 45.7927 629.142 45.0509 629.856 44.0841C630.57 43.1172 631.061 41.942 631.326 40.5583H639.948C639.732 43.2756 638.935 45.6844 637.556 47.7848C636.177 49.8686 634.3 51.5023 631.924 52.6858C629.549 53.8527 626.758 54.4362 623.552 54.4362Z" fill="#F5F5F5"/>
<path d="M647.355 53.686V15.2781H656.376V53.686H647.355ZM651.891 9.82702C650.462 9.82702 649.233 9.35192 648.203 8.40173C647.173 7.43486 646.658 6.27629 646.658 4.92601C646.658 3.55906 647.173 2.40049 648.203 1.4503C649.233 0.483432 650.462 0 651.891 0C653.336 0 654.565 0.483432 655.579 1.4503C656.609 2.40049 657.124 3.55906 657.124 4.92601C657.124 6.27629 656.609 7.43486 655.579 8.40173C654.565 9.35192 653.336 9.82702 651.891 9.82702Z" fill="#F5F5F5"/>
<path d="M682.348 54.4362C678.61 54.4362 675.37 53.611 672.629 51.9607C669.888 50.3103 667.762 48.0015 666.25 45.0343C664.755 42.067 664.007 38.5996 664.007 34.6321C664.007 30.6646 664.755 27.1889 666.25 24.205C667.762 21.221 669.888 18.9039 672.629 17.2535C675.37 15.6032 678.61 14.778 682.348 14.778C686.085 14.778 689.325 15.6032 692.066 17.2535C694.807 18.9039 696.925 21.221 698.42 24.205C699.932 27.1889 700.688 30.6646 700.688 34.6321C700.688 38.5996 699.932 42.067 698.42 45.0343C696.925 48.0015 694.807 50.3103 692.066 51.9607C689.325 53.611 686.085 54.4362 682.348 54.4362ZM682.397 47.1847C684.424 47.1847 686.119 46.6262 687.481 45.5093C688.843 44.3758 689.856 42.8588 690.521 40.9584C691.202 39.058 691.543 36.9409 691.543 34.6071C691.543 32.2566 691.202 30.1312 690.521 28.2308C689.856 26.3137 688.843 24.7884 687.481 23.6549C686.119 22.5213 684.424 21.9545 682.397 21.9545C680.321 21.9545 678.593 22.5213 677.214 23.6549C675.852 24.7884 674.83 26.3137 674.149 28.2308C673.485 30.1312 673.152 32.2566 673.152 34.6071C673.152 36.9409 673.485 39.058 674.149 40.9584C674.83 42.8588 675.852 44.3758 677.214 45.5093C678.593 46.6262 680.321 47.1847 682.397 47.1847Z" fill="#F5F5F5"/>
<path d="M414.147 138.183V86.9729H446.84V94.7495H423.391V108.652H444.597V116.429H423.391V138.183H414.147Z" fill="#F5F5F5"/>
<path d="M468.999 138.934C465.162 138.934 461.847 138.133 459.057 136.533C456.282 134.916 454.147 132.632 452.652 129.682C451.157 126.714 450.41 123.222 450.41 119.204C450.41 115.254 451.157 111.786 452.652 108.802C454.164 105.802 456.274 103.468 458.982 101.801C461.69 100.117 464.871 99.2754 468.526 99.2754C470.885 99.2754 473.111 99.6588 475.204 100.426C477.314 101.176 479.174 102.343 480.786 103.926C482.414 105.51 483.693 107.527 484.623 109.978C485.553 112.411 486.019 115.312 486.019 118.679V121.455H454.646V115.354H477.372C477.355 113.62 476.981 112.078 476.25 110.728C475.52 109.361 474.498 108.286 473.185 107.502C471.89 106.719 470.378 106.327 468.65 106.327C466.806 106.327 465.186 106.777 463.791 107.677C462.396 108.561 461.307 109.728 460.527 111.178C459.762 112.611 459.372 114.187 459.355 115.904V121.23C459.355 123.464 459.762 125.381 460.577 126.981C461.391 128.565 462.529 129.782 463.99 130.632C465.452 131.465 467.163 131.882 469.124 131.882C470.436 131.882 471.624 131.699 472.687 131.332C473.75 130.949 474.672 130.39 475.453 129.657C476.234 128.923 476.824 128.015 477.222 126.931L485.645 127.881C485.113 130.115 484.1 132.065 482.605 133.732C481.126 135.383 479.232 136.666 476.923 137.583C474.614 138.483 471.973 138.934 468.999 138.934Z" fill="#F5F5F5"/>
<path d="M493.65 138.183V99.7755H502.396V106.177H502.795C503.493 103.96 504.689 102.251 506.383 101.051C508.095 99.8339 510.047 99.2254 512.239 99.2254C512.738 99.2254 513.294 99.2504 513.909 99.3004C514.54 99.3337 515.064 99.3921 515.479 99.4754V107.802C515.097 107.669 514.49 107.552 513.66 107.452C512.846 107.335 512.057 107.277 511.292 107.277C509.648 107.277 508.169 107.635 506.857 108.352C505.561 109.052 504.539 110.028 503.792 111.278C503.044 112.528 502.671 113.97 502.671 115.604V138.183H493.65Z" fill="#F5F5F5"/>
<path d="M530.492 115.679V138.183H521.472V99.7755H530.094V106.302H530.542C531.423 104.151 532.827 102.443 534.754 101.176C536.697 99.9089 539.098 99.2754 541.955 99.2754C544.596 99.2754 546.897 99.8422 548.858 100.976C550.834 102.109 552.363 103.751 553.443 105.902C554.539 108.052 555.079 110.661 555.062 113.728V138.183H546.042V115.129C546.042 112.561 545.377 110.553 544.048 109.102C542.736 107.652 540.917 106.927 538.591 106.927C537.013 106.927 535.609 107.277 534.38 107.977C533.167 108.661 532.212 109.653 531.514 110.953C530.833 112.253 530.492 113.828 530.492 115.679Z" fill="#F5F5F5"/>
<path d="M575.247 138.959C572.821 138.959 570.637 138.525 568.693 137.658C566.766 136.775 565.238 135.475 564.108 133.757C562.995 132.04 562.438 129.923 562.438 127.406C562.438 125.239 562.837 123.447 563.634 122.03C564.432 120.613 565.52 119.48 566.899 118.629C568.278 117.779 569.831 117.137 571.559 116.704C573.303 116.254 575.105 115.929 576.966 115.729C579.209 115.495 581.028 115.287 582.423 115.104C583.819 114.904 584.832 114.604 585.463 114.203C586.111 113.787 586.435 113.145 586.435 112.278V112.128C586.435 110.244 585.879 108.786 584.766 107.752C583.653 106.719 582.049 106.202 579.956 106.202C577.747 106.202 575.994 106.685 574.698 107.652C573.419 108.619 572.555 109.761 572.107 111.078L563.684 109.878C564.349 107.544 565.445 105.593 566.974 104.026C568.502 102.443 570.371 101.259 572.58 100.476C574.79 99.6755 577.232 99.2754 579.906 99.2754C581.75 99.2754 583.586 99.4921 585.413 99.9255C587.241 100.359 588.91 101.076 590.422 102.076C591.934 103.06 593.147 104.401 594.06 106.102C594.991 107.802 595.456 109.928 595.456 112.478V138.183H586.784V132.907H586.485C585.937 133.974 585.164 134.974 584.168 135.908C583.187 136.825 581.95 137.567 580.455 138.133C578.976 138.684 577.24 138.959 575.247 138.959ZM577.589 132.307C579.4 132.307 580.97 131.949 582.299 131.232C583.628 130.498 584.649 129.532 585.364 128.331C586.095 127.131 586.46 125.823 586.46 124.406V119.88C586.178 120.113 585.696 120.33 585.015 120.53C584.35 120.73 583.603 120.905 582.772 121.055C581.941 121.205 581.119 121.338 580.305 121.455C579.491 121.572 578.785 121.672 578.187 121.755C576.841 121.938 575.637 122.238 574.574 122.655C573.511 123.072 572.672 123.655 572.057 124.406C571.442 125.139 571.135 126.089 571.135 127.256C571.135 128.923 571.741 130.182 572.954 131.032C574.167 131.882 575.712 132.307 577.589 132.307ZM576.841 94.7245L582.423 83.2971H591.244L583.594 94.7245H576.841Z" fill="#F5F5F5"/>
<path d="M613.547 115.679V138.183H604.526V99.7755H613.148V106.302H613.597C614.477 104.151 615.881 102.443 617.808 101.176C619.752 99.9089 622.152 99.2754 625.009 99.2754C627.651 99.2754 629.952 99.8422 631.912 100.976C633.889 102.109 635.417 103.751 636.497 105.902C637.593 108.052 638.133 110.661 638.117 113.728V138.183H629.096V115.129C629.096 112.561 628.432 110.553 627.103 109.102C625.79 107.652 623.971 106.927 621.645 106.927C620.067 106.927 618.663 107.277 617.434 107.977C616.221 108.661 615.266 109.653 614.568 110.953C613.887 112.253 613.547 113.828 613.547 115.679Z" fill="#F5F5F5"/>
<path d="M661.491 138.859C658.484 138.859 655.792 138.083 653.417 136.533C651.041 134.983 649.164 132.732 647.785 129.782C646.406 126.831 645.717 123.247 645.717 119.029C645.717 114.762 646.415 111.161 647.81 108.227C649.222 105.277 651.124 103.051 653.517 101.551C655.909 100.034 658.575 99.2754 661.515 99.2754C663.758 99.2754 665.602 99.6588 667.047 100.426C668.493 101.176 669.639 102.084 670.486 103.151C671.333 104.201 671.99 105.193 672.455 106.127H672.829V86.9729H681.874V138.183H673.003V132.132H672.455C671.99 133.066 671.317 134.058 670.436 135.108C669.556 136.141 668.393 137.025 666.948 137.758C665.502 138.492 663.683 138.859 661.491 138.859ZM664.007 131.432C665.918 131.432 667.546 130.915 668.891 129.882C670.237 128.831 671.259 127.373 671.956 125.506C672.654 123.639 673.003 121.463 673.003 118.979C673.003 116.496 672.654 114.337 671.956 112.503C671.275 110.669 670.262 109.244 668.916 108.227C667.587 107.21 665.951 106.702 664.007 106.702C661.997 106.702 660.319 107.227 658.974 108.277C657.628 109.327 656.615 110.778 655.934 112.628C655.253 114.479 654.912 116.596 654.912 118.979C654.912 121.38 655.253 123.522 655.934 125.406C656.631 127.273 657.653 128.748 658.999 129.832C660.361 130.899 662.03 131.432 664.007 131.432Z" fill="#F5F5F5"/>
<path d="M708.431 138.934C704.594 138.934 701.28 138.133 698.489 136.533C695.714 134.916 693.58 132.632 692.085 129.682C690.589 126.714 689.842 123.222 689.842 119.204C689.842 115.254 690.589 111.786 692.085 108.802C693.596 105.802 695.706 103.468 698.414 101.801C701.122 100.117 704.303 99.2754 707.958 99.2754C710.317 99.2754 712.543 99.6588 714.636 100.426C716.746 101.176 718.606 102.343 720.218 103.926C721.846 105.51 723.125 107.527 724.055 109.978C724.986 112.411 725.451 115.312 725.451 118.679V121.455H694.078V115.354H716.804C716.787 113.62 716.414 112.078 715.683 110.728C714.952 109.361 713.93 108.286 712.618 107.502C711.322 106.719 709.81 106.327 708.082 106.327C706.238 106.327 704.619 106.777 703.223 107.677C701.828 108.561 700.74 109.728 699.959 111.178C699.195 112.611 698.804 114.187 698.788 115.904V121.23C698.788 123.464 699.195 125.381 700.009 126.981C700.823 128.565 701.961 129.782 703.423 130.632C704.885 131.465 706.596 131.882 708.556 131.882C709.868 131.882 711.056 131.699 712.119 131.332C713.183 130.949 714.105 130.39 714.885 129.657C715.666 128.923 716.256 128.015 716.655 126.931L725.077 127.881C724.545 130.115 723.532 132.065 722.037 133.732C720.559 135.383 718.665 136.666 716.355 137.583C714.046 138.483 711.405 138.934 708.431 138.934Z" fill="#F5F5F5"/>
<path d="M732.584 138.183V132.432L752.32 107.602V107.277H733.232V99.7755H763.359V105.952L744.57 130.357V130.682H764.006V138.183H732.584Z" fill="#F5F5F5"/>
<path d="M414.157 193.975V186.933L442.225 174.531V182.633L423.008 190.374L423.267 189.954V190.954L423.008 190.534L442.225 198.276V206.377L414.157 193.975Z" fill="#4578ED"/>
<path d="M474.54 176.111C474.301 174.084 473.33 172.51 471.629 171.39C469.928 170.27 467.842 169.71 465.37 169.71C463.562 169.71 461.981 170.003 460.625 170.59C459.283 171.177 458.233 171.984 457.475 173.011C456.731 174.037 456.359 175.204 456.359 176.511C456.359 177.605 456.618 178.545 457.136 179.332C457.668 180.105 458.346 180.752 459.17 181.272C459.994 181.779 460.858 182.199 461.761 182.533C462.665 182.853 463.496 183.113 464.253 183.313L468.4 184.433C469.463 184.713 470.646 185.1 471.948 185.593C473.264 186.087 474.52 186.76 475.716 187.614C476.925 188.454 477.922 189.534 478.706 190.854C479.49 192.174 479.882 193.795 479.882 195.715C479.882 197.929 479.304 199.929 478.148 201.716C477.005 203.504 475.33 204.924 473.124 205.977C470.931 207.031 468.267 207.558 465.13 207.558C462.207 207.558 459.675 207.084 457.535 206.137C455.409 205.191 453.734 203.87 452.512 202.177C451.302 200.483 450.618 198.516 450.458 196.275H455.562C455.695 197.822 456.213 199.103 457.117 200.116C458.034 201.116 459.19 201.863 460.585 202.357C461.994 202.837 463.509 203.077 465.13 203.077C467.018 203.077 468.712 202.77 470.214 202.157C471.716 201.53 472.905 200.663 473.782 199.556C474.659 198.436 475.098 197.129 475.098 195.635C475.098 194.275 474.719 193.168 473.962 192.315C473.204 191.461 472.207 190.768 470.971 190.234C469.735 189.701 468.4 189.234 466.964 188.834L461.941 187.394C458.751 186.473 456.226 185.16 454.366 183.453C452.505 181.746 451.575 179.512 451.575 176.751C451.575 174.458 452.193 172.457 453.429 170.75C454.678 169.03 456.352 167.696 458.452 166.749C460.565 165.789 462.924 165.309 465.529 165.309C468.161 165.309 470.5 165.782 472.546 166.729C474.593 167.663 476.214 168.943 477.41 170.57C478.62 172.197 479.258 174.044 479.324 176.111H474.54Z" fill="#F5F5F5"/>
<path d="M499.812 207.478C497.048 207.478 494.623 206.818 492.536 205.497C490.463 204.177 488.842 202.33 487.672 199.956C486.516 197.582 485.938 194.808 485.938 191.634C485.938 188.434 486.516 185.64 487.672 183.253C488.842 180.866 490.463 179.012 492.536 177.692C494.623 176.371 497.048 175.711 499.812 175.711C502.577 175.711 504.996 176.371 507.069 177.692C509.155 179.012 510.777 180.866 511.933 183.253C513.102 185.64 513.687 188.434 513.687 191.634C513.687 194.808 513.102 197.582 511.933 199.956C510.777 202.33 509.155 204.177 507.069 205.497C504.996 206.818 502.577 207.478 499.812 207.478ZM499.812 203.237C501.912 203.237 503.64 202.697 504.996 201.616C506.351 200.536 507.354 199.116 508.006 197.356C508.657 195.595 508.983 193.688 508.983 191.634C508.983 189.581 508.657 187.667 508.006 185.893C507.354 184.12 506.351 182.686 504.996 181.592C503.64 180.499 501.912 179.952 499.812 179.952C497.713 179.952 495.985 180.499 494.629 181.592C493.274 182.686 492.27 184.12 491.619 185.893C490.968 187.667 490.642 189.581 490.642 191.634C490.642 193.688 490.968 195.595 491.619 197.356C492.27 199.116 493.274 200.536 494.629 201.616C495.985 202.697 497.713 203.237 499.812 203.237Z" fill="#F5F5F5"/>
<path d="M534.504 176.111V180.112H517.998V176.111H534.504ZM522.942 206.838V171.87C522.942 170.11 523.354 168.643 524.178 167.469C525.002 166.296 526.072 165.416 527.388 164.829C528.703 164.242 530.092 163.949 531.554 163.949C532.71 163.949 533.654 164.042 534.385 164.229C535.116 164.415 535.661 164.589 536.019 164.749L534.664 168.83C534.425 168.75 534.092 168.65 533.667 168.53C533.255 168.41 532.71 168.35 532.032 168.35C530.477 168.35 529.354 168.743 528.663 169.53C527.986 170.317 527.647 171.47 527.647 172.991V206.838H522.942Z" fill="#F5F5F5"/>
<path d="M554.414 176.111V180.112H538.546V176.111H554.414ZM543.171 168.75H547.876V198.036C547.876 199.369 548.068 200.37 548.454 201.036C548.853 201.69 549.358 202.13 549.969 202.357C550.594 202.57 551.251 202.677 551.943 202.677C552.461 202.677 552.886 202.65 553.218 202.597C553.551 202.53 553.816 202.477 554.016 202.437L554.973 206.677C554.654 206.798 554.208 206.918 553.637 207.038C553.066 207.171 552.341 207.238 551.464 207.238C550.135 207.238 548.833 206.951 547.557 206.377C546.294 205.804 545.244 204.93 544.407 203.757C543.583 202.583 543.171 201.103 543.171 199.316V168.75Z" fill="#F5F5F5"/>
<path d="M568.429 206.838L559.099 176.111H564.043L570.662 199.636H570.98L577.519 176.111H582.543L589.002 199.556H589.321L595.939 176.111H600.883L591.553 206.838H586.929L580.23 183.233H579.752L573.054 206.838H568.429Z" fill="#F5F5F5"/>
<path d="M616.113 207.558C614.173 207.558 612.412 207.191 610.831 206.457C609.249 205.711 607.993 204.637 607.063 203.237C606.133 201.823 605.667 200.116 605.667 198.116C605.667 196.355 606.013 194.928 606.704 193.835C607.395 192.728 608.319 191.861 609.475 191.234C610.631 190.608 611.907 190.141 613.303 189.834C614.711 189.514 616.127 189.261 617.549 189.074C619.409 188.834 620.918 188.654 622.074 188.534C623.244 188.4 624.094 188.18 624.626 187.874C625.171 187.567 625.443 187.033 625.443 186.273V186.113C625.443 184.14 624.905 182.606 623.828 181.512C622.765 180.419 621.15 179.872 618.984 179.872C616.738 179.872 614.977 180.365 613.701 181.352C612.425 182.339 611.528 183.393 611.01 184.513L606.545 182.913C607.342 181.046 608.405 179.592 609.734 178.552C611.077 177.498 612.538 176.765 614.12 176.351C615.715 175.924 617.283 175.711 618.825 175.711C619.808 175.711 620.938 175.831 622.214 176.071C623.503 176.298 624.745 176.771 625.941 177.491C627.151 178.212 628.154 179.299 628.952 180.752C629.749 182.206 630.148 184.153 630.148 186.593V206.838H625.443V202.677H625.204C624.885 203.343 624.353 204.057 623.609 204.817C622.865 205.577 621.875 206.224 620.639 206.758C619.403 207.291 617.894 207.558 616.113 207.558ZM616.831 203.317C618.692 203.317 620.26 202.95 621.536 202.217C622.825 201.483 623.795 200.536 624.446 199.376C625.111 198.216 625.443 196.995 625.443 195.715V191.394C625.244 191.634 624.805 191.854 624.127 192.054C623.463 192.241 622.692 192.408 621.815 192.555C620.951 192.688 620.107 192.808 619.283 192.915C618.472 193.008 617.815 193.088 617.31 193.155C616.087 193.315 614.944 193.575 613.881 193.935C612.831 194.282 611.98 194.808 611.329 195.515C610.691 196.209 610.372 197.156 610.372 198.356C610.372 199.996 610.977 201.236 612.186 202.077C613.409 202.903 614.957 203.317 616.831 203.317Z" fill="#F5F5F5"/>
<path d="M638.735 206.838V176.111H643.28V180.752H643.599C644.157 179.232 645.167 177.998 646.629 177.051C648.091 176.105 649.739 175.631 651.573 175.631C651.918 175.631 652.35 175.638 652.869 175.651C653.387 175.664 653.779 175.684 654.045 175.711V180.512C653.885 180.472 653.52 180.412 652.948 180.332C652.39 180.239 651.799 180.192 651.174 180.192C649.686 180.192 648.357 180.505 647.187 181.132C646.031 181.746 645.114 182.599 644.436 183.693C643.772 184.773 643.439 186.007 643.439 187.394V206.838H638.735Z" fill="#F5F5F5"/>
<path d="M671.528 207.478C668.577 207.478 666.032 206.824 663.893 205.517C661.766 204.197 660.125 202.357 658.969 199.996C657.826 197.622 657.254 194.862 657.254 191.714C657.254 188.567 657.826 185.793 658.969 183.393C660.125 180.979 661.733 179.098 663.793 177.752C665.866 176.391 668.285 175.711 671.049 175.711C672.644 175.711 674.219 175.978 675.774 176.511C677.329 177.045 678.744 177.912 680.02 179.112C681.296 180.299 682.313 181.872 683.07 183.833C683.828 185.793 684.207 188.207 684.207 191.074V193.075H660.603V188.994H679.422C679.422 187.26 679.077 185.713 678.385 184.353C677.708 182.993 676.738 181.919 675.475 181.132C674.226 180.345 672.751 179.952 671.049 179.952C669.176 179.952 667.554 180.419 666.185 181.352C664.83 182.272 663.786 183.473 663.055 184.953C662.324 186.433 661.959 188.02 661.959 189.714V192.435C661.959 194.755 662.358 196.722 663.155 198.336C663.966 199.936 665.089 201.156 666.524 201.997C667.959 202.823 669.627 203.237 671.528 203.237C672.764 203.237 673.88 203.063 674.877 202.717C675.887 202.357 676.757 201.823 677.488 201.116C678.219 200.396 678.784 199.503 679.183 198.436L683.728 199.716C683.25 201.263 682.446 202.623 681.316 203.797C680.186 204.957 678.791 205.864 677.13 206.517C675.468 207.158 673.601 207.478 671.528 207.478Z" fill="#F5F5F5"/>
<path d="M707.79 206.838V165.869H732.429V170.27H712.734V184.113H731.154V188.514H712.734V202.437H732.748V206.838H707.79Z" fill="#F5F5F5"/>
<path d="M745.407 188.354V206.838H740.702V176.111H745.248V180.912H745.646C746.364 179.352 747.454 178.098 748.916 177.151C750.378 176.191 752.265 175.711 754.577 175.711C756.65 175.711 758.465 176.138 760.019 176.991C761.574 177.832 762.784 179.112 763.648 180.832C764.512 182.539 764.943 184.7 764.943 187.313V206.838H760.239V187.634C760.239 185.22 759.614 183.339 758.365 181.992C757.116 180.632 755.401 179.952 753.222 179.952C751.72 179.952 750.377 180.279 749.195 180.932C748.025 181.586 747.102 182.539 746.424 183.793C745.746 185.046 745.407 186.567 745.407 188.354Z" fill="#F5F5F5"/>
<path d="M785.9 219C783.628 219 781.674 218.707 780.039 218.12C778.405 217.546 777.042 216.786 775.953 215.839C774.876 214.906 774.019 213.906 773.381 212.839L777.129 210.198C777.554 210.758 778.092 211.398 778.743 212.119C779.395 212.852 780.285 213.486 781.415 214.019C782.558 214.566 784.053 214.839 785.9 214.839C788.372 214.839 790.412 214.239 792.02 213.039C793.628 211.839 794.432 209.958 794.432 207.398V201.156H794.034C793.688 201.716 793.196 202.41 792.558 203.237C791.934 204.05 791.03 204.777 789.847 205.417C788.678 206.044 787.096 206.357 785.103 206.357C782.631 206.357 780.411 205.771 778.444 204.597C776.491 203.423 774.943 201.716 773.8 199.476C772.67 197.236 772.105 194.515 772.105 191.314C772.105 188.167 772.657 185.426 773.76 183.093C774.863 180.745 776.398 178.932 778.365 177.652C780.332 176.358 782.604 175.711 785.183 175.711C787.176 175.711 788.757 176.045 789.927 176.711C791.11 177.365 792.014 178.112 792.638 178.952C793.276 179.779 793.768 180.459 794.113 180.992H794.592V176.111H799.137V207.718C799.137 210.358 798.539 212.505 797.343 214.159C796.16 215.826 794.565 217.046 792.558 217.82C790.565 218.607 788.346 219 785.9 219ZM785.741 202.117C787.628 202.117 789.223 201.683 790.525 200.816C791.827 199.949 792.818 198.703 793.495 197.076C794.173 195.449 794.512 193.501 794.512 191.234C794.512 189.021 794.18 187.067 793.515 185.373C792.851 183.679 791.867 182.353 790.565 181.392C789.262 180.432 787.654 179.952 785.741 179.952C783.747 179.952 782.086 180.459 780.757 181.472C779.441 182.486 778.451 183.846 777.787 185.553C777.135 187.26 776.81 189.154 776.81 191.234C776.81 193.368 777.142 195.255 777.806 196.895C778.484 198.522 779.481 199.803 780.797 200.736C782.126 201.656 783.774 202.117 785.741 202.117Z" fill="#F5F5F5"/>
<path d="M807.749 206.838V176.111H812.454V206.838H807.749ZM810.141 170.99C809.224 170.99 808.433 170.677 807.769 170.05C807.118 169.423 806.792 168.67 806.792 167.789C806.792 166.909 807.118 166.156 807.769 165.529C808.433 164.902 809.224 164.589 810.141 164.589C811.058 164.589 811.842 164.902 812.493 165.529C813.158 166.156 813.49 166.909 813.49 167.789C813.49 168.67 813.158 169.423 812.493 170.05C811.842 170.677 811.058 170.99 810.141 170.99Z" fill="#F5F5F5"/>
<path d="M825.775 188.354V206.838H821.07V176.111H825.616V180.912H826.014C826.732 179.352 827.822 178.098 829.284 177.151C830.746 176.191 832.633 175.711 834.945 175.711C837.018 175.711 838.833 176.138 840.388 176.991C841.943 177.832 843.152 179.112 844.016 180.832C844.88 182.539 845.312 184.7 845.312 187.313V206.838H840.607V187.634C840.607 185.22 839.982 183.339 838.733 181.992C837.484 180.632 835.769 179.952 833.59 179.952C832.088 179.952 830.746 180.279 829.563 180.932C828.393 181.586 827.47 182.539 826.792 183.793C826.114 185.046 825.775 186.567 825.775 188.354Z" fill="#F5F5F5"/>
<path d="M866.747 207.478C863.796 207.478 861.251 206.824 859.112 205.517C856.985 204.197 855.344 202.357 854.188 199.996C853.045 197.622 852.473 194.862 852.473 191.714C852.473 188.567 853.045 185.793 854.188 183.393C855.344 180.979 856.952 179.098 859.012 177.752C861.085 176.391 863.504 175.711 866.268 175.711C867.863 175.711 869.438 175.978 870.993 176.511C872.548 177.045 873.963 177.912 875.239 179.112C876.515 180.299 877.532 181.872 878.289 183.833C879.047 185.793 879.425 188.207 879.425 191.074V193.075H855.822V188.994H874.641C874.641 187.26 874.295 185.713 873.604 184.353C872.926 182.993 871.956 181.919 870.694 181.132C869.445 180.345 867.969 179.952 866.268 179.952C864.394 179.952 862.773 180.419 861.404 181.352C860.048 182.272 859.005 183.473 858.274 184.953C857.543 186.433 857.178 188.02 857.178 189.714V192.435C857.178 194.755 857.577 196.722 858.374 198.336C859.185 199.936 860.308 201.156 861.743 201.997C863.178 202.823 864.846 203.237 866.747 203.237C867.983 203.237 869.099 203.063 870.096 202.717C871.106 202.357 871.976 201.823 872.707 201.116C873.438 200.396 874.003 199.503 874.402 198.436L878.947 199.716C878.468 201.263 877.664 202.623 876.535 203.797C875.405 204.957 874.01 205.864 872.348 206.517C870.687 207.158 868.82 207.478 866.747 207.478Z" fill="#F5F5F5"/>
<path d="M899.42 207.478C896.47 207.478 893.925 206.824 891.785 205.517C889.659 204.197 888.017 202.357 886.861 199.996C885.718 197.622 885.147 194.862 885.147 191.714C885.147 188.567 885.718 185.793 886.861 183.393C888.017 180.979 889.625 179.098 891.685 177.752C893.759 176.391 896.177 175.711 898.942 175.711C900.537 175.711 902.111 175.978 903.666 176.511C905.221 177.045 906.637 177.912 907.912 179.112C909.188 180.299 910.205 181.872 910.963 183.833C911.72 185.793 912.099 188.207 912.099 191.074V193.075H888.496V188.994H907.314C907.314 187.26 906.969 185.713 906.278 184.353C905.6 182.993 904.63 181.919 903.367 181.132C902.118 180.345 900.643 179.952 898.942 179.952C897.068 179.952 895.446 180.419 894.078 181.352C892.722 182.272 891.679 183.473 890.948 184.953C890.217 186.433 889.851 188.02 889.851 189.714V192.435C889.851 194.755 890.25 196.722 891.047 198.336C891.858 199.936 892.981 201.156 894.416 201.997C895.852 202.823 897.52 203.237 899.42 203.237C900.656 203.237 901.773 203.063 902.769 202.717C903.779 202.357 904.65 201.823 905.381 201.116C906.112 200.396 906.676 199.503 907.075 198.436L911.62 199.716C911.142 201.263 910.338 202.623 909.208 203.797C908.079 204.957 906.683 205.864 905.022 206.517C903.361 207.158 901.493 207.478 899.42 207.478Z" fill="#F5F5F5"/>
<path d="M919.256 206.838V176.111H923.801V180.752H924.12C924.678 179.232 925.688 177.998 927.15 177.051C928.612 176.105 930.26 175.631 932.094 175.631C932.439 175.631 932.871 175.638 933.39 175.651C933.908 175.664 934.3 175.684 934.566 175.711V180.512C934.406 180.472 934.041 180.412 933.469 180.332C932.911 180.239 932.32 180.192 931.695 180.192C930.206 180.192 928.878 180.505 927.708 181.132C926.552 181.746 925.635 182.599 924.957 183.693C924.293 184.773 923.96 186.007 923.96 187.394V206.838H919.256Z" fill="#F5F5F5"/>
<path d="M957.008 163.949L943.85 212.999H936.534L949.691 163.949H957.008Z" fill="#4578ED"/>
<path d="M990.822 193.975L962.754 206.377V198.276L981.971 190.534L981.712 190.954V189.954L981.971 190.374L962.754 182.633V174.531L990.822 186.933V193.975Z" fill="#4578ED"/>
</svg>
