<svg width="350" height="219" viewBox="0 0 350 219" fill="none" xmlns="http://www.w3.org/2000/svg">
<path d="M123.896 218.639H72.8799C64.7087 218.639 57.6137 217.839 51.5957 216.239C45.5777 214.639 40.6085 212.039 36.6885 208.439C32.7685 204.84 29.8416 200.04 27.9092 194.041C26.032 188.099 25.0938 180.756 25.0938 172.014V147.33C25.0937 138.188 23.244 131.618 19.5449 127.618C15.8457 123.618 9.33079 121.618 0 121.618V96.9346C9.33079 96.9346 15.8457 94.963 19.5449 91.0205C23.244 87.0209 25.0937 80.4217 25.0938 71.2227V46.625C25.0938 37.8829 26.032 30.54 27.9092 24.5977C29.8416 18.5982 32.7685 13.7989 36.6885 10.1992C40.6085 6.59956 45.5777 3.99927 51.5957 2.39941C57.6137 0.799609 64.7087 0 72.8799 0V21.8643C66.4753 21.8643 61.4784 22.8356 57.8896 24.7783C54.301 26.721 51.789 28.1977 50.3535 32.3115C48.9732 36.3683 48.2832 41.5679 48.2832 47.9102V79.1074C48.2832 83.5069 47.6477 87.5923 46.3779 91.3633C45.1081 95.0772 42.7619 98.3062 39.3389 101.049C35.9157 103.791 31.029 105.934 24.6797 107.477C24.115 107.614 23.5348 107.741 22.9404 107.866V110.771C23.5348 110.896 24.115 111.025 24.6797 111.162C31.029 112.648 35.9157 114.79 39.3389 117.59C42.7618 120.332 45.1081 123.589 46.3779 127.36C47.6478 131.074 48.2832 135.132 48.2832 139.531V170.729C48.2832 177.014 48.9732 182.184 50.3535 186.241C51.789 190.355 54.3009 191.833 57.8896 193.775C61.4784 195.775 66.4754 196.774 72.8799 196.774H98.3877V0H123.896V218.639Z" fill="#F2F7F6"/>
<path d="M276.942 0C285.114 0 292.209 0.799579 298.227 2.39941C304.245 3.99928 309.214 6.59953 313.134 10.1992C317.054 13.7989 319.98 18.5983 321.912 24.5977C323.789 30.54 324.729 37.8829 324.729 46.625V71.2227C324.729 80.4218 326.578 87.0209 330.277 91.0205C333.977 94.963 340.491 96.9346 349.822 96.9346V121.618C340.491 121.618 333.977 123.618 330.277 127.618C326.578 131.618 324.729 138.188 324.729 147.33V172.014C324.729 180.756 323.789 188.099 321.912 194.041C319.98 200.04 317.054 204.84 313.134 208.439C309.214 212.039 304.245 214.639 298.227 216.239C292.209 217.839 285.114 218.639 276.942 218.639H200.419V196.774H276.942C283.347 196.774 288.344 195.775 291.933 193.775C295.521 191.833 298.033 190.355 299.469 186.241C300.849 182.184 301.539 177.014 301.539 170.729V139.531C301.539 135.132 302.174 131.074 303.444 127.36C304.714 123.589 307.06 120.332 310.483 117.59C313.907 114.79 318.793 112.648 325.143 111.162C325.707 111.025 326.287 110.896 326.882 110.771V107.866C326.288 107.741 325.707 107.614 325.143 107.477C318.793 105.934 313.907 103.791 310.483 101.049C307.06 98.3062 304.714 95.0772 303.444 91.3633C302.175 87.5923 301.539 83.5069 301.539 79.1074V47.9102C301.539 41.5679 300.849 36.3683 299.469 32.3115C298.033 28.1977 295.521 26.7209 291.933 24.7783C288.344 22.8356 283.347 21.8643 276.942 21.8643H174.911V87.4551H225.927V109.319H174.911V218.639H149.403V0H276.942Z" fill="#F2F7F6"/>
</svg>
