<svg width="400" height="203" viewBox="0 0 400 203" fill="none" xmlns="http://www.w3.org/2000/svg">
<path d="M6.61795 90.1V26.996H19.8019V90.1H6.61795ZM13.2739 18.42C10.7139 18.42 8.53795 17.6093 6.74595 15.988C5.03928 14.2813 4.18595 12.1053 4.18595 9.46C4.18595 6.81467 5.03928 4.68134 6.74595 3.06001C8.53795 1.35334 10.7139 0.5 13.2739 0.5C15.9193 0.5 18.0953 1.35334 19.8019 3.06001C21.5086 4.68134 22.3619 6.81467 22.3619 9.46C22.3619 12.1053 21.5086 14.2813 19.8019 15.988C18.0953 17.6093 15.9193 18.42 13.2739 18.42Z" fill="#A6A09B"/>
<path d="M121.243 90.1V26.996H134.171V36.468H136.219C137.414 33.908 139.547 31.5187 142.619 29.3C145.691 27.0813 150.256 25.972 156.315 25.972C161.094 25.972 165.318 27.0387 168.987 29.172C172.742 31.3053 175.686 34.3347 177.819 38.26C179.952 42.1 181.019 46.7507 181.019 52.212V90.1H167.835V53.236C167.835 47.7747 166.47 43.764 163.739 41.204C161.008 38.5587 157.254 37.236 152.475 37.236C147.014 37.236 142.619 39.028 139.291 42.612C136.048 46.196 134.427 51.4013 134.427 58.228V90.1H121.243Z" fill="#A6A09B"/>
<path d="M89.171 195.892C82.771 195.892 77.1816 194.569 72.4029 191.924C67.6243 189.193 63.8696 185.396 61.1389 180.532C58.4936 175.583 57.1709 169.865 57.1709 163.38V161.844C57.1709 155.273 58.4936 149.556 61.1389 144.692C63.7843 139.743 67.4536 135.945 72.1469 133.3C76.9256 130.569 82.4296 129.204 88.659 129.204C94.7176 129.204 100.008 130.569 104.531 133.3C109.139 135.945 112.723 139.657 115.283 144.436C117.843 149.215 119.123 154.804 119.123 161.204V166.196H70.6109C70.7816 171.743 72.6163 176.18 76.1149 179.508C79.6989 182.751 84.1363 184.372 89.4269 184.372C94.3763 184.372 98.0883 183.263 100.563 181.044C103.123 178.825 105.086 176.265 106.451 173.364L117.331 178.996C116.136 181.385 114.387 183.903 112.083 186.548C109.864 189.193 106.92 191.412 103.251 193.204C99.5816 194.996 94.8883 195.892 89.171 195.892ZM70.7389 156.084H105.683C105.342 151.305 103.635 147.593 100.563 144.948C97.491 142.217 93.4803 140.852 88.531 140.852C83.5816 140.852 79.5283 142.217 76.3709 144.948C73.299 147.593 71.4216 151.305 70.7389 156.084Z" fill="#A6A09B"/>
<path d="M134.993 194.1V130.996H147.921V138.42H149.969C150.993 135.775 152.614 133.855 154.833 132.66C157.137 131.38 159.953 130.74 163.281 130.74H170.833V142.644H162.769C158.502 142.644 155.004 143.839 152.273 146.228C149.542 148.532 148.177 152.116 148.177 156.98V194.1H134.993Z" fill="#A6A09B"/>
<path d="M46.938 115.636H89.434C93.3593 115.636 96.4313 114.484 98.6499 112.18C100.954 109.876 101.832 106.868 101.832 103.028V26.996H89.032V36.084H86.9839C85.4479 33.4387 83.0159 30.964 79.688 28.66C76.4453 26.356 71.7519 25.204 65.6079 25.204C60.3173 25.204 55.4533 26.484 51.0159 29.044C46.5786 31.604 42.9946 35.2307 40.2639 39.924C37.6186 44.6173 36.2959 50.292 36.2959 56.948V58.868C36.2959 65.4387 37.6186 71.1133 40.2639 75.892C42.9093 80.5853 46.4506 84.212 50.8879 86.772C55.4106 89.2467 60.3173 90.484 65.6079 90.484C69.7893 90.484 73.2453 89.972 75.976 88.948C78.792 87.924 81.0533 86.6013 82.7599 84.98C84.4666 83.3587 85.7893 81.78 86.728 80.244H88.7759V100.66C88.7759 103.22 87.5386 104.5 85.0639 104.5H46.938H30.6819C26.8419 104.5 23.7699 105.652 21.4659 107.956C19.1619 110.26 18.0099 113.332 18.0099 117.172V130.996H0.345947V142.132H18.0099V194.1H31.1939V142.132H49.3699V130.996H31.1939V119.476C31.1939 116.916 32.4313 115.636 34.9059 115.636H46.938ZM83.2719 73.588C79.6026 77.172 74.9093 78.964 69.1919 78.964C63.5599 78.964 58.8666 77.172 55.1119 73.588C51.4426 69.9187 49.6079 64.884 49.6079 58.484V57.332C49.6079 50.7613 51.4426 45.7267 55.1119 42.228C58.8666 38.644 63.5599 36.852 69.1919 36.852C74.9946 36.852 79.7306 38.644 83.3999 42.228C87.0693 45.7267 88.904 50.7613 88.904 57.332V58.484C88.904 64.884 87.0266 69.9187 83.2719 73.588Z" fill="#A6A09B"/>
<rect x="205.019" y="0.5" width="8" height="195" fill="#A6A09B"/>
<path d="M245.713 114.095C244.017 114.095 242.514 113.792 241.205 113.187C239.896 112.582 238.865 111.696 238.114 110.53C237.384 109.341 237.019 107.904 237.019 106.219V105.409H240.464V106.219C240.464 107.818 240.937 109.017 241.881 109.817C242.847 110.616 244.124 111.016 245.713 111.016C247.323 111.016 248.536 110.681 249.351 110.011C250.167 109.32 250.575 108.434 250.575 107.353C250.575 106.64 250.382 106.057 249.995 105.603C249.609 105.15 249.062 104.793 248.353 104.534C247.645 104.253 246.797 103.994 245.809 103.756L244.618 103.464C243.18 103.119 241.924 102.697 240.851 102.2C239.799 101.682 238.983 101.001 238.404 100.158C237.824 99.3157 237.534 98.2353 237.534 96.9173C237.534 95.5777 237.856 94.4325 238.5 93.4818C239.166 92.5311 240.078 91.7964 241.237 91.2779C242.396 90.7593 243.759 90.5 245.327 90.5C246.894 90.5 248.289 90.7701 249.512 91.3103C250.757 91.8504 251.734 92.6499 252.443 93.7086C253.151 94.7674 253.505 96.0962 253.505 97.6951V98.8619H250.06V97.6951C250.06 96.7228 249.856 95.9342 249.448 95.3292C249.062 94.7242 248.514 94.2812 247.806 94.0003C247.097 93.7194 246.271 93.579 245.327 93.579C243.953 93.579 242.879 93.8707 242.107 94.4541C241.355 95.0159 240.98 95.8045 240.98 96.8201C240.98 97.5115 241.141 98.0841 241.463 98.5378C241.806 98.97 242.3 99.3265 242.944 99.6074C243.588 99.8883 244.393 100.137 245.359 100.353L246.55 100.644C248.01 100.969 249.298 101.39 250.414 101.909C251.53 102.405 252.41 103.086 253.054 103.95C253.698 104.815 254.02 105.927 254.02 107.289C254.02 108.65 253.677 109.838 252.99 110.854C252.325 111.869 251.369 112.669 250.124 113.252C248.879 113.814 247.409 114.095 245.713 114.095Z" fill="#A6A09B"/>
<path d="M265.206 114.095C263.617 114.095 262.2 113.771 260.955 113.123C259.732 112.453 258.766 111.502 258.057 110.27C257.349 109.039 256.995 107.58 256.995 105.895V105.409C256.995 103.723 257.349 102.276 258.057 101.066C258.766 99.8342 259.732 98.8835 260.955 98.2137C262.2 97.5439 263.617 97.209 265.206 97.209C266.794 97.209 268.211 97.5439 269.456 98.2137C270.701 98.8835 271.678 99.8342 272.386 101.066C273.095 102.276 273.449 103.723 273.449 105.409V105.895C273.449 107.58 273.095 109.039 272.386 110.27C271.678 111.502 270.701 112.453 269.456 113.123C268.211 113.771 266.794 114.095 265.206 114.095ZM265.206 111.113C266.665 111.113 267.846 110.649 268.748 109.719C269.671 108.769 270.132 107.462 270.132 105.798V105.506C270.132 103.842 269.681 102.546 268.78 101.617C267.878 100.666 266.687 100.191 265.206 100.191C263.767 100.191 262.587 100.666 261.664 101.617C260.762 102.546 260.311 103.842 260.311 105.506V105.798C260.311 107.462 260.762 108.769 261.664 109.719C262.587 110.649 263.767 111.113 265.206 111.113Z" fill="#A6A09B"/>
<path d="M279.846 113.641V100.482H275.403V97.6627H279.846V94.1624C279.846 93.1901 280.136 92.4122 280.715 91.8288C281.295 91.2454 282.068 90.9537 283.034 90.9537H287.123V93.7735H284.096C283.474 93.7735 283.163 94.0976 283.163 94.7458V97.6627H287.735V100.482H283.163V113.641H279.846Z" fill="#A6A09B"/>
<path d="M296.679 113.641C295.713 113.641 294.94 113.349 294.36 112.766C293.802 112.183 293.523 111.405 293.523 110.432V100.482H289.144V97.6627H293.523V92.3798H296.84V97.6627H301.573V100.482H296.84V109.849C296.84 110.497 297.14 110.821 297.741 110.821H301.058V113.641H296.679Z" fill="#A6A09B"/>
<path d="M307.208 113.641L304.503 97.6627H307.82L309.816 111.405H310.331L313.101 97.6627H318.478L321.215 111.405H321.73L323.726 97.6627H327.043L324.338 113.641H318.768L316.031 99.9315H315.516L312.779 113.641H307.208Z" fill="#A6A09B"/>
<path d="M335.772 114.095C334.634 114.095 333.614 113.9 332.713 113.511C331.833 113.123 331.124 112.55 330.588 111.794C330.072 111.037 329.815 110.119 329.815 109.039C329.815 107.937 330.072 107.029 330.588 106.316C331.124 105.582 331.843 105.031 332.745 104.663C333.668 104.296 334.709 104.112 335.868 104.112H340.698V103.075C340.698 102.146 340.419 101.401 339.861 100.839C339.303 100.277 338.444 99.9963 337.285 99.9963C336.147 99.9963 335.278 100.266 334.677 100.807C334.076 101.347 333.679 102.049 333.486 102.913L330.394 101.909C330.652 101.044 331.06 100.266 331.618 99.575C332.198 98.8619 332.96 98.2893 333.904 97.8572C334.849 97.4251 335.986 97.209 337.317 97.209C339.378 97.209 340.999 97.7384 342.179 98.7971C343.36 99.8558 343.95 101.358 343.95 103.302V109.882C343.95 110.53 344.251 110.854 344.852 110.854H346.204V113.641H343.725C342.974 113.641 342.362 113.447 341.89 113.058C341.417 112.669 341.181 112.139 341.181 111.47V111.372H340.698C340.527 111.696 340.269 112.075 339.925 112.507C339.582 112.939 339.078 113.317 338.412 113.641C337.747 113.944 336.867 114.095 335.772 114.095ZM336.255 111.34C337.586 111.34 338.659 110.962 339.475 110.206C340.29 109.428 340.698 108.369 340.698 107.029V106.705H336.062C335.181 106.705 334.473 106.9 333.936 107.289C333.4 107.656 333.131 108.207 333.131 108.942C333.131 109.676 333.41 110.26 333.969 110.692C334.527 111.124 335.289 111.34 336.255 111.34Z" fill="#A6A09B"/>
<path d="M349.429 113.641V97.6627H352.681V99.5425H353.196C353.454 98.8727 353.862 98.3866 354.42 98.0841C355 97.76 355.708 97.5979 356.545 97.5979H358.445V100.612H356.416C355.343 100.612 354.463 100.915 353.776 101.52C353.089 102.103 352.746 103.01 352.746 104.242V113.641H349.429Z" fill="#A6A09B"/>
<path d="M368.592 114.095C366.982 114.095 365.576 113.76 364.374 113.09C363.172 112.399 362.228 111.437 361.541 110.206C360.875 108.952 360.542 107.505 360.542 105.863V105.474C360.542 103.81 360.875 102.362 361.541 101.131C362.206 99.8774 363.129 98.9159 364.31 98.2461C365.512 97.5547 366.896 97.209 368.464 97.209C369.988 97.209 371.319 97.5547 372.456 98.2461C373.615 98.9159 374.517 99.8558 375.161 101.066C375.805 102.276 376.127 103.691 376.127 105.312V106.576H363.923C363.966 107.98 364.428 109.104 365.308 109.946C366.21 110.767 367.326 111.178 368.657 111.178C369.902 111.178 370.836 110.897 371.458 110.335C372.102 109.773 372.596 109.125 372.939 108.391L375.676 109.817C375.376 110.422 374.936 111.059 374.356 111.729C373.798 112.399 373.057 112.96 372.134 113.414C371.211 113.868 370.031 114.095 368.592 114.095ZM363.956 104.015H372.746C372.66 102.805 372.231 101.865 371.458 101.195C370.685 100.504 369.676 100.158 368.431 100.158C367.186 100.158 366.167 100.504 365.372 101.195C364.6 101.865 364.127 102.805 363.956 104.015Z" fill="#A6A09B"/>
<path d="M238.049 154.83V132.142H252.249V135.318H241.527V141.833H251.348V145.009H241.527V151.653H252.41V154.83H238.049Z" fill="#A6A09B"/>
<path d="M256.132 154.83V138.851H259.385V141.249H259.9C260.2 140.601 260.737 139.996 261.51 139.435C262.283 138.873 263.431 138.592 264.955 138.592C266.157 138.592 267.22 138.862 268.143 139.402C269.087 139.942 269.828 140.709 270.365 141.703C270.901 142.676 271.17 143.853 271.17 145.236V154.83H267.853V145.495C267.853 144.112 267.51 143.097 266.823 142.449C266.136 141.779 265.191 141.444 263.989 141.444C262.615 141.444 261.51 141.898 260.673 142.805C259.857 143.713 259.449 145.031 259.449 146.759V154.83H256.132Z" fill="#A6A09B"/>
<path d="M275.17 146.921V146.435C275.17 144.75 275.503 143.313 276.168 142.125C276.855 140.936 277.757 140.018 278.873 139.37C279.989 138.721 281.213 138.397 282.544 138.397C284.089 138.397 285.27 138.689 286.085 139.272C286.923 139.856 287.534 140.482 287.921 141.152H288.436V138.851H291.656V158.103C291.656 159.075 291.366 159.853 290.787 160.437C290.228 161.02 289.456 161.312 288.468 161.312H277.778V158.395H287.438C288.06 158.395 288.372 158.071 288.372 157.422V152.334H287.856C287.62 152.723 287.288 153.123 286.858 153.533C286.429 153.944 285.86 154.279 285.152 154.538C284.465 154.797 283.595 154.927 282.544 154.927C281.213 154.927 279.978 154.613 278.841 153.987C277.724 153.339 276.834 152.42 276.168 151.232C275.503 150.022 275.17 148.585 275.17 146.921ZM283.445 152.01C284.883 152.01 286.064 151.556 286.987 150.649C287.932 149.719 288.404 148.445 288.404 146.824V146.532C288.404 144.869 287.942 143.594 287.019 142.708C286.096 141.8 284.905 141.347 283.445 141.347C282.028 141.347 280.848 141.8 279.903 142.708C278.98 143.594 278.519 144.869 278.519 146.532V146.824C278.519 148.445 278.98 149.719 279.903 150.649C280.848 151.556 282.028 152.01 283.445 152.01Z" fill="#A6A09B"/>
<path d="M296.539 154.83V138.851H299.856V154.83H296.539ZM298.213 136.68C297.569 136.68 297.022 136.474 296.571 136.064C296.142 135.632 295.927 135.081 295.927 134.411C295.927 133.741 296.142 133.201 296.571 132.79C297.022 132.358 297.569 132.142 298.213 132.142C298.879 132.142 299.426 132.358 299.856 132.79C300.285 133.201 300.5 133.741 300.5 134.411C300.5 135.081 300.285 135.632 299.856 136.064C299.426 136.474 298.879 136.68 298.213 136.68Z" fill="#A6A09B"/>
<path d="M304.778 154.83V138.851H308.03V141.249H308.545C308.845 140.601 309.382 139.996 310.155 139.435C310.928 138.873 312.076 138.592 313.6 138.592C314.802 138.592 315.865 138.862 316.788 139.402C317.732 139.942 318.473 140.709 319.01 141.703C319.546 142.676 319.815 143.853 319.815 145.236V154.83H316.498V145.495C316.498 144.112 316.155 143.097 315.468 142.449C314.781 141.779 313.836 141.444 312.634 141.444C311.26 141.444 310.155 141.898 309.318 142.805C308.502 143.713 308.094 145.031 308.094 146.759V154.83H304.778Z" fill="#A6A09B"/>
<path d="M331.865 155.283C330.255 155.283 328.849 154.948 327.647 154.279C326.445 153.587 325.5 152.626 324.813 151.394C324.148 150.141 323.815 148.693 323.815 147.051V146.662C323.815 144.998 324.148 143.551 324.813 142.319C325.479 141.066 326.402 140.104 327.582 139.435C328.784 138.743 330.169 138.397 331.736 138.397C333.26 138.397 334.591 138.743 335.729 139.435C336.888 140.104 337.79 141.044 338.434 142.254C339.077 143.464 339.399 144.879 339.399 146.5V147.764H327.196C327.239 149.168 327.7 150.292 328.58 151.135C329.482 151.956 330.598 152.366 331.929 152.366C333.174 152.366 334.108 152.085 334.731 151.524C335.375 150.962 335.868 150.314 336.212 149.579L338.949 151.005C338.648 151.61 338.208 152.247 337.629 152.917C337.07 153.587 336.33 154.149 335.407 154.603C334.484 155.056 333.303 155.283 331.865 155.283ZM327.228 145.204H336.019C335.933 143.994 335.503 143.054 334.731 142.384C333.958 141.692 332.949 141.347 331.704 141.347C330.459 141.347 329.439 141.692 328.645 142.384C327.872 143.054 327.4 143.994 327.228 145.204Z" fill="#A6A09B"/>
<path d="M350.669 155.283C349.059 155.283 347.653 154.948 346.451 154.279C345.249 153.587 344.304 152.626 343.617 151.394C342.952 150.141 342.619 148.693 342.619 147.051V146.662C342.619 144.998 342.952 143.551 343.617 142.319C344.283 141.066 345.206 140.104 346.386 139.435C347.588 138.743 348.973 138.397 350.54 138.397C352.064 138.397 353.395 138.743 354.533 139.435C355.692 140.104 356.593 141.044 357.237 142.254C357.881 143.464 358.203 144.879 358.203 146.5V147.764H346C346.043 149.168 346.504 150.292 347.384 151.135C348.286 151.956 349.402 152.366 350.733 152.366C351.978 152.366 352.912 152.085 353.535 151.524C354.179 150.962 354.672 150.314 355.016 149.579L357.753 151.005C357.452 151.61 357.012 152.247 356.432 152.917C355.874 153.587 355.134 154.149 354.211 154.603C353.288 155.056 352.107 155.283 350.669 155.283ZM346.032 145.204H354.823C354.737 143.994 354.307 143.054 353.535 142.384C352.762 141.692 351.753 141.347 350.508 141.347C349.263 141.347 348.243 141.692 347.449 142.384C346.676 143.054 346.204 143.994 346.032 145.204Z" fill="#A6A09B"/>
<path d="M362.196 154.83V138.851H365.448V140.731H365.963C366.221 140.061 366.628 139.575 367.187 139.272C367.766 138.948 368.475 138.786 369.312 138.786H371.212V141.8H369.183C368.11 141.8 367.23 142.103 366.543 142.708C365.856 143.291 365.512 144.199 365.512 145.43V154.83H362.196Z" fill="#A6A09B"/>
<path d="M388.2 154.83C386.912 154.83 385.764 154.592 384.755 154.116C383.767 153.641 382.984 152.95 382.404 152.042C381.846 151.135 381.567 150.044 381.567 148.769C381.567 147.818 381.739 146.997 382.082 146.306C382.426 145.614 382.887 145.042 383.467 144.588C384.068 144.112 384.712 143.767 385.399 143.551V143.129C384.368 142.805 383.499 142.243 382.791 141.444C382.082 140.644 381.728 139.564 381.728 138.203C381.728 136.885 382.018 135.783 382.597 134.897C383.198 133.99 383.993 133.309 384.98 132.855C385.968 132.38 387.084 132.142 388.329 132.142H392.128V134.962H388.876C387.803 134.962 386.901 135.254 386.171 135.837C385.442 136.399 385.077 137.274 385.077 138.462C385.077 139.283 385.248 139.953 385.592 140.472C385.957 140.969 386.418 141.347 386.976 141.606C387.556 141.844 388.189 141.963 388.876 141.963H392.644V138.754H395.96V141.963H399.019V144.782H395.96V154.83H388.2ZM388.747 152.01H392.644V144.782H388.747C387.674 144.782 386.762 145.085 386.01 145.69C385.259 146.273 384.883 147.181 384.883 148.412C384.883 149.644 385.27 150.551 386.043 151.135C386.815 151.718 387.717 152.01 388.747 152.01Z" fill="#A6A09B"/>
<path d="M237.212 196.018V192.906H240.239V176.442H237.212V173.331H246.228C249.233 173.331 251.53 174.098 253.119 175.632C254.729 177.166 255.534 179.478 255.534 182.568V186.813C255.534 189.903 254.729 192.215 253.119 193.749C251.53 195.262 249.233 196.018 246.228 196.018H237.212ZM243.749 192.842H246.26C248.214 192.842 249.663 192.345 250.607 191.351C251.552 190.357 252.024 188.877 252.024 186.911V182.438C252.024 180.45 251.552 178.97 250.607 177.998C249.663 177.025 248.214 176.539 246.26 176.539H243.749V192.842Z" fill="#A6A09B"/>
<path d="M266.837 196.472C265.227 196.472 263.821 196.137 262.619 195.467C261.417 194.775 260.472 193.814 259.785 192.582C259.12 191.329 258.787 189.881 258.787 188.239V187.85C258.787 186.187 259.12 184.739 259.785 183.507C260.451 182.254 261.374 181.293 262.554 180.623C263.757 179.931 265.141 179.586 266.708 179.586C268.232 179.586 269.563 179.931 270.701 180.623C271.86 181.293 272.762 182.233 273.406 183.443C274.05 184.653 274.372 186.068 274.372 187.688V188.952H262.168C262.211 190.357 262.673 191.48 263.553 192.323C264.454 193.144 265.57 193.555 266.901 193.555C268.146 193.555 269.08 193.274 269.703 192.712C270.347 192.15 270.84 191.502 271.184 190.767L273.921 192.193C273.62 192.798 273.18 193.436 272.601 194.106C272.043 194.775 271.302 195.337 270.379 195.791C269.456 196.245 268.275 196.472 266.837 196.472ZM262.2 186.392H270.991C270.905 185.182 270.476 184.242 269.703 183.572C268.93 182.881 267.921 182.535 266.676 182.535C265.431 182.535 264.411 182.881 263.617 183.572C262.844 184.242 262.372 185.182 262.2 186.392Z" fill="#A6A09B"/>
<path d="M284.868 196.472C282.85 196.472 281.176 196.018 279.845 195.11C278.514 194.203 277.698 192.831 277.398 190.994L280.489 190.249C280.661 191.135 280.951 191.837 281.358 192.356C281.766 192.874 282.271 193.241 282.872 193.457C283.494 193.674 284.16 193.782 284.868 193.782C285.92 193.782 286.725 193.576 287.283 193.166C287.863 192.755 288.153 192.226 288.153 191.578C288.153 190.929 287.884 190.454 287.348 190.152C286.811 189.849 286.017 189.601 284.965 189.406L283.87 189.212C282.797 189.017 281.82 188.736 280.94 188.369C280.06 188.002 279.362 187.494 278.847 186.846C278.332 186.198 278.074 185.366 278.074 184.35C278.074 182.838 278.632 181.671 279.748 180.85C280.865 180.007 282.346 179.586 284.192 179.586C285.974 179.586 287.433 179.996 288.571 180.817C289.73 181.617 290.482 182.708 290.825 184.091L287.734 184.966C287.541 183.994 287.133 183.313 286.51 182.924C285.888 182.514 285.115 182.308 284.192 182.308C283.29 182.308 282.582 182.481 282.067 182.827C281.552 183.151 281.294 183.615 281.294 184.22C281.294 184.869 281.541 185.344 282.035 185.647C282.55 185.949 283.237 186.176 284.095 186.327L285.222 186.522C286.36 186.716 287.401 186.986 288.346 187.332C289.29 187.678 290.031 188.175 290.567 188.823C291.126 189.471 291.405 190.335 291.405 191.416C291.405 193.015 290.814 194.257 289.634 195.143C288.453 196.029 286.865 196.472 284.868 196.472Z" fill="#A6A09B"/>
<path d="M295.281 196.018V180.039H298.598V196.018H295.281ZM296.956 177.868C296.312 177.868 295.764 177.663 295.313 177.252C294.884 176.82 294.669 176.269 294.669 175.599C294.669 174.929 294.884 174.389 295.313 173.979C295.764 173.547 296.312 173.331 296.956 173.331C297.621 173.331 298.168 173.547 298.598 173.979C299.027 174.389 299.242 174.929 299.242 175.599C299.242 176.269 299.027 176.82 298.598 177.252C298.168 177.663 297.621 177.868 296.956 177.868Z" fill="#A6A09B"/>
<path d="M302.747 188.11V187.624C302.747 185.938 303.08 184.501 303.745 183.313C304.432 182.125 305.334 181.206 306.45 180.558C307.566 179.91 308.79 179.586 310.121 179.586C311.666 179.586 312.847 179.877 313.663 180.461C314.5 181.044 315.112 181.671 315.498 182.341H316.013V180.039H319.233V199.291C319.233 200.264 318.943 201.042 318.364 201.625C317.806 202.208 317.033 202.5 316.045 202.5H305.355V199.583H315.015C315.637 199.583 315.949 199.259 315.949 198.611V193.522H315.434C315.197 193.911 314.865 194.311 314.435 194.721C314.006 195.132 313.437 195.467 312.729 195.726C312.042 195.985 311.172 196.115 310.121 196.115C308.79 196.115 307.555 195.802 306.418 195.175C305.301 194.527 304.411 193.609 303.745 192.42C303.08 191.21 302.747 189.773 302.747 188.11ZM311.022 193.198C312.46 193.198 313.641 192.744 314.564 191.837C315.509 190.908 315.981 189.633 315.981 188.012V187.721C315.981 186.057 315.519 184.782 314.596 183.896C313.673 182.989 312.482 182.535 311.022 182.535C309.605 182.535 308.425 182.989 307.48 183.896C306.557 184.782 306.096 186.057 306.096 187.721V188.012C306.096 189.633 306.557 190.908 307.48 191.837C308.425 192.744 309.605 193.198 311.022 193.198Z" fill="#A6A09B"/>
<path d="M324.116 196.018V180.039H327.368V182.438H327.883C328.184 181.79 328.721 181.185 329.493 180.623C330.266 180.061 331.415 179.78 332.939 179.78C334.141 179.78 335.203 180.05 336.126 180.59C337.071 181.131 337.812 181.898 338.348 182.892C338.885 183.864 339.153 185.042 339.153 186.424V196.018H335.837V186.684C335.837 185.301 335.493 184.285 334.806 183.637C334.119 182.967 333.175 182.632 331.973 182.632C330.599 182.632 329.493 183.086 328.656 183.994C327.84 184.901 327.433 186.219 327.433 187.948V196.018H324.116Z" fill="#A6A09B"/>
<path d="M351.203 196.472C349.593 196.472 348.187 196.137 346.985 195.467C345.783 194.775 344.839 193.814 344.152 192.582C343.486 191.329 343.153 189.881 343.153 188.239V187.85C343.153 186.187 343.486 184.739 344.152 183.507C344.817 182.254 345.74 181.293 346.921 180.623C348.123 179.931 349.508 179.586 351.075 179.586C352.599 179.586 353.93 179.931 355.067 180.623C356.226 181.293 357.128 182.233 357.772 183.443C358.416 184.653 358.738 186.068 358.738 187.688V188.952H346.534C346.577 190.357 347.039 191.48 347.919 192.323C348.821 193.144 349.937 193.555 351.268 193.555C352.513 193.555 353.447 193.274 354.069 192.712C354.713 192.15 355.207 191.502 355.55 190.767L358.287 192.193C357.987 192.798 357.547 193.436 356.967 194.106C356.409 194.775 355.668 195.337 354.745 195.791C353.822 196.245 352.642 196.472 351.203 196.472ZM346.567 186.392H355.357C355.271 185.182 354.842 184.242 354.069 183.572C353.296 182.881 352.287 182.535 351.042 182.535C349.797 182.535 348.778 182.881 347.983 183.572C347.211 184.242 346.738 185.182 346.567 186.392Z" fill="#A6A09B"/>
<path d="M362.73 196.018V180.039H365.982V181.919H366.498C366.755 181.249 367.163 180.763 367.721 180.461C368.301 180.137 369.009 179.975 369.846 179.975H371.746V182.989H369.718C368.644 182.989 367.764 183.291 367.077 183.896C366.39 184.48 366.047 185.387 366.047 186.619V196.018H362.73Z" fill="#A6A09B"/>
</svg>
