<svg width="182" height="196" viewBox="0 0 182 196" fill="none" xmlns="http://www.w3.org/2000/svg">
<path d="M6.72799 89.9999V26.8959H19.912V89.9999H6.72799ZM13.384 18.3199C10.824 18.3199 8.64799 17.5092 6.85599 15.8879C5.14933 14.1812 4.29599 12.0052 4.29599 9.3599C4.29599 6.71457 5.14933 4.58124 6.85599 2.95991C8.64799 1.25324 10.824 0.399902 13.384 0.399902C16.0293 0.399902 18.2053 1.25324 19.912 2.95991C21.6187 4.58124 22.472 6.71457 22.472 9.3599C22.472 12.0052 21.6187 14.1812 19.912 15.8879C18.2053 17.5092 16.0293 18.3199 13.384 18.3199Z" fill="#8B8B8B"/>
<path d="M121.353 89.9999V26.8959H134.281V36.3679H136.329C137.524 33.8079 139.657 31.4186 142.729 29.1999C145.801 26.9812 150.366 25.8719 156.425 25.8719C161.204 25.8719 165.428 26.9386 169.097 29.0719C172.852 31.2052 175.796 34.2346 177.929 38.1599C180.062 41.9999 181.129 46.6506 181.129 52.1119V89.9999H167.945V53.1359C167.945 47.6746 166.58 43.6639 163.849 41.1039C161.118 38.4586 157.364 37.1359 152.585 37.1359C147.124 37.1359 142.729 38.9279 139.401 42.5119C136.158 46.0959 134.537 51.3012 134.537 58.1279V89.9999H121.353Z" fill="#8B8B8B"/>
<path d="M89.281 195.792C82.881 195.792 77.2917 194.469 72.513 191.824C67.7343 189.093 63.9797 185.296 61.249 180.432C58.6037 175.483 57.281 169.765 57.281 163.28V161.744C57.281 155.173 58.6037 149.456 61.249 144.592C63.8943 139.643 67.5637 135.845 72.257 133.2C77.0357 130.469 82.5397 129.104 88.769 129.104C94.8277 129.104 100.118 130.469 104.641 133.2C109.249 135.845 112.833 139.557 115.393 144.336C117.953 149.115 119.233 154.704 119.233 161.104V166.096H70.721C70.8917 171.643 72.7263 176.08 76.225 179.408C79.809 182.651 84.2463 184.272 89.537 184.272C94.4863 184.272 98.1983 183.163 100.673 180.944C103.233 178.725 105.196 176.165 106.561 173.264L117.441 178.896C116.246 181.285 114.497 183.803 112.193 186.448C109.974 189.093 107.03 191.312 103.361 193.104C99.6917 194.896 94.9983 195.792 89.281 195.792ZM70.849 155.984H105.793C105.452 151.205 103.745 147.493 100.673 144.848C97.601 142.117 93.5903 140.752 88.641 140.752C83.6917 140.752 79.6383 142.117 76.481 144.848C73.409 147.493 71.5317 151.205 70.849 155.984Z" fill="#8B8B8B"/>
<path d="M135.103 194V130.896H148.031V138.32H150.079C151.103 135.675 152.724 133.755 154.943 132.56C157.247 131.28 160.063 130.64 163.391 130.64H170.943V142.544H162.879C158.612 142.544 155.114 143.739 152.383 146.128C149.652 148.432 148.287 152.016 148.287 156.88V194H135.103Z" fill="#8B8B8B"/>
<path d="M47.048 115.536H89.544C93.4693 115.536 96.5413 114.384 98.76 112.08C101.064 109.776 101.942 106.768 101.942 102.928V26.8959H89.142V35.9839H87.094C85.558 33.3386 83.126 30.8639 79.798 28.5599C76.5553 26.2559 71.862 25.1039 65.718 25.1039C60.4273 25.1039 55.5633 26.3839 51.126 28.9439C46.6887 31.5039 43.1047 35.1306 40.374 39.8239C37.7287 44.5172 36.406 50.1919 36.406 56.8479V58.7679C36.406 65.3386 37.7287 71.0132 40.374 75.7919C43.0193 80.4852 46.5607 84.1119 50.998 86.6719C55.5207 89.1466 60.4273 90.3839 65.718 90.3839C69.8993 90.3839 73.3553 89.8719 76.086 88.8479C78.902 87.8239 81.1633 86.5012 82.87 84.8799C84.5767 83.2586 85.8993 81.6799 86.838 80.1439H88.886V100.56C88.886 103.12 87.6487 104.4 85.174 104.4H47.048H30.792C26.952 104.4 23.88 105.552 21.576 107.856C19.272 110.16 18.12 113.232 18.12 117.072V130.896H0.455994V142.032H18.12V194H31.304V142.032H49.48V130.896H31.304V119.376C31.304 116.816 32.5413 115.536 35.016 115.536H47.048ZM83.382 73.4879C79.7127 77.0719 75.0193 78.8639 69.302 78.8639C63.67 78.8639 58.9767 77.0719 55.222 73.4879C51.5527 69.8186 49.718 64.7839 49.718 58.3839V57.2319C49.718 50.6612 51.5527 45.6266 55.222 42.1279C58.9767 38.5439 63.67 36.7519 69.302 36.7519C75.1047 36.7519 79.8407 38.5439 83.51 42.1279C87.1793 45.6266 89.014 50.6612 89.014 57.2319V58.3839C89.014 64.7839 87.1367 69.8186 83.382 73.4879Z" fill="#8B8B8B"/>
</svg>
