<svg xmlns="http://www.w3.org/2000/svg" width="100%" viewBox="0 0 1056 1056" height="150"
  xmlns:v="https://vecta.io/nano">
  <path fill="#292929"
    d="M554.108 382.842c22.302-10.718 45.444-18.816 69.96-22.771 3.917-.632 6.761-.151 8.57 3.759 1.092 2.36 2.649 4.506 4.571 7.703-27.049.464-52.1 6.377-77.306 15.225-5.257 1.713-9.76 3.345-14.263 4.977l.396 1.275 10.279-2.059c.736-.059 1.154-.122 1.977-.108 2.166-.271 3.928-.619 5.691-.967 1.665-.168 3.33-.336 5.667-.45 1.388-.17 2.103-.395 2.819-.619 22.19-2.782 44.384-3.157 66.624-.461 4.432.537 7.457 1.804 8.106 6.782.378 2.9 1.571 5.693 2.455 8.731l-40.541-6.978c-3.209-.345-5.724-.408-8.239-.471l-34.753-.196-16.618.691.017 1.656 11.491 1.418c30.047 3.686 59.296 10.214 86.68 23.722 3.673 1.812 5.241 3.894 4.81 7.951-.342 3.225-.069 6.516-.8 10.284-29.867-19.397-62.526-30.169-96.463-37.563l-.694 1.213c1.485.908 2.892 1.99 4.467 2.697 20.035 8.985 40.298 17.613 58.209 30.536 9.558 6.897 18.517 14.645 27.498 22.3 1.371 1.168 2.295 4.137 1.865 5.891-1.092 4.457-3.069 8.697-5.143 14.227-23.376-30.866-53.651-51.322-87.519-67.554 1.094 1.329 1.977 2.935 3.312 3.944 22.226 16.808 43.231 34.893 59.582 57.723 4.639 6.477 8.681 13.394 12.741 20.26.773 1.308 1.09 3.843.34 4.925-3.014 4.346-6.531 8.345-10.494 13.255l-3.173-7.29c-9.688-24.337-24.545-45.245-42.563-64.032-4.767-4.971-9.789-9.697-15.03-14.975-2.358-4.189-5.148-6.978-8.618-8.915l-1.203 1.389 7.518 8.176c8.631 11.764 17.655 23.263 25.798 35.357 11.718 17.403 19.411 36.671 24.443 57.027.742 3.001.245 4.965-2.511 6.644-4.062 2.475-7.903 5.313-12.815 8.663-3.304-27.754-10.596-53.07-24.239-76.198l-1.448.404 3.448 16.339c4.368 19.438 5.866 39.136 5.582 59.016-.126 8.858-2.516 11.15-12.432 11.016 3.988-26.042 4.163-52.05-.945-78.073l-1.572 15.359c-2.155 20.76-6.449 40.995-13.609 60.68-1.979 5.442-4.746 7.353-10.044 6.892-1.947-.17-3.922-.027-7.072-.027 14.741-26.636 22.483-54.552 26.757-83.511l-1.155-.488-2.506 5.805-2.476 5.987c-9.415 23.594-20.849 46.049-36.582 66.173-2.731 3.493-5.262 5.078-9.612 3.203-2.688-1.159-5.664-1.651-9.69-2.77 22.865-21.814 39.017-47.16 52.232-74.477l-1.343-1.239c-1.36 1.335-2.896 2.533-4.055 4.024-16.716 21.514-34.904 41.536-57.443 57.203-9.661 6.716-9.646 6.757-19.318.099-1.061-.73-1.989-1.652-3.63-3.032 32.205-15.498 57.888-38.263 81.123-64.051l-.92-1.323c-3.621 2.477-7.32 4.848-10.85 7.448-22.062 16.246-45.106 30.707-71.251 39.601l-2.836.961c-12.824 4.131-16.136 2.648-22.794-10.788 36.238-4.115 67.859-19.621 98.784-38.567l10.427-5.276-.78-1.575-9.996 4.32c-1.767.619-3.535 1.238-6.002 1.969-3.272 1.269-5.844 2.426-8.417 3.584-15.734 4.762-31.335 10.043-47.241 14.134-14.684 3.777-29.823 4.852-45.016 3.941-1.286-.077-3.217-.795-3.653-1.756-2.238-4.942-4.084-10.06-6.516-16.261 39.844 7.504 76.944-.044 113.556-12.013l-39.76 4.543c-24.938 2.389-49.563.847-73.5-7.116-1.559-.519-3.32-2.528-3.679-4.136-.826-3.702-.897-7.58-1.164-11.394-.09-1.277.151-2.578.222-3.596 13.005 3.95 25.674 8.367 38.642 11.575 12.814 3.169 25.946 4.936 39.205 4.335l.335-1.435-11.755-3.719c-20.457-6.283-39.854-14.956-58.162-26.02-7.971-4.817-8.555-7.826-3.618-16.567 19.656 15.825 41.049 28.562 64.275 38.037l.716-1.259c-9.775-7.786-20.004-15.078-29.202-23.496-9.546-8.736-18.019-18.637-27.125-27.867-2.915-2.954-2.808-5.582-.665-8.78 1.466-2.189 2.566-4.623 4.369-7.939 15.592 25.908 35.938 46.498 59.558 64.006-7.168-9.809-15.013-19.203-21.34-29.527-8.671-14.15-16.147-29.03-24.226-43.547-2.66-4.779-2.19-8.597 2.271-12.107 2.027-1.595 3.388-4.036 5.826-5.782 7.888 30.133 22.066 56.482 38.871 82.328 2.054 3.655 3.943 6.644 5.832 9.632l1.379-.823-5.486-12.268c-6.163-18.941-12.946-37.711-18.239-56.893-2.848-10.321-3.24-21.336-4.462-32.07-.162-1.421.922-3.646 2.127-4.437 3.552-2.335 7.455-4.137 12.488-6.825-2.733 37.134 4.821 71.538 15.598 105.407l1.467-.147c-.518-5.984-.855-11.99-1.586-17.947-3.551-28.945-3.873-57.76 3.035-86.333 2.001-8.275.608-8.067 9.552-9.31l10.415-1.463c-15.865 36.673-17.37 74.201-16.122 112.075l1.268.203 4.333-25.829c4.549-27.23 11.685-53.602 25.429-77.842 5.159-9.099 5.692-9.495 15.894-7.539 2.523.484 5.03 1.058 8.038 1.695l-14.597 20.903c-10.181 15.195-17.023 31.942-22.513 49.291l-7.937 25.289c-.197 1.196-.173 1.789-.245 2.667-.182.677-.269 1.069-.654 1.683-1.499 4.494-2.701 8.766-3.903 13.038l1.936.552 4.284-14.125c.415-.937.714-1.544 1.068-2.17.054-.02.162-.185.162-.185 7.91-16.839 15.205-34.005 23.912-50.421 7.907-14.908 18.97-27.707 31.495-39.079 1.293-1.174 4.052-2 5.555-1.441 4.939 1.836 9.614 4.385 15.172 7.033-21.409 15.948-39.306 33.964-52.343 56.302l1.156 1.313c1.646-1.138 3.486-2.075 4.907-3.446 15.906-15.353 33.628-28.208 52.973-38.871 9.584-5.282 9.92-5.241 17.327 4.357-22.316 8.795-43.094 20.057-62.758 34.624l-10.355 7.341.758 1.285 9.941-5.488m-13.94 30.524l-9.268-15.688-28.252 48.892h56.659l-19.138-33.203m4.568 55.542l1.521 1.392.82-2.972c-.627.242-1.255.485-2.341 1.58m5.113-65.895c.305.42.551.921.951 1.21.124.09.666-.399 1.016-.623-.406-.225-.813-.45-1.967-.587m-41.055 25.134l-.335-.544c.02.263.039.526.335.544M539 384.5l.6.4c-.033-.3-.067-.6-.6-.4z" />
  <path fill="#292929"
    d="M418.668 709.964c-2.344 10.586-2.344 10.589-13.119 10.247-.656-.021-1.308-.143-2.836-.319l23.651-123.172 1.244-.311 42.09 96.871 42.178-96.728 1.292.139 23.685 123.278h-13.992l-14.758-76.954-1.159-.249-37.265 82.547-36.429-81.17-1.988-.015-12.595 65.834z" />
  <path fill="#292929"
    d="M814.413 674.46l-9.241 2.468 32.209 42.816c-5.979 0-10.741.244-15.452-.144-1.47-.121-3.125-1.705-4.143-3.039l-30.073-39.837c-1.256-1.666-2.573-3.286-4.841-6.175-.171 3.255-.336 4.969-.34 6.682l.052 37.969c.044 3.398-.884 4.647-4.464 4.66-10.302.038-10.301.19-10.301-10.226V608.712v-6.504c15.416-.007 30.5-1.704 44.908 3.09 5.739 1.909 11.62 5.617 15.627 10.117 17.689 19.861 10.963 47.969-13.942 59.044m8.572-26.243c4.89-12.415-2.746-29.304-18.938-32.06-5.216-.888-10.591-.792-15.868-1.376-4.485-.496-6.135.959-6.005 5.747.334 12.317.112 24.649.112 36.976v8.052c7.141-.313 13.673-.045 20.018-1.007 9.43-1.429 16.717-6.322 20.681-16.332z" />
  <path fill="#292929"
    d="M999.158 609.147c6.268-9.822 15.627-6.983 24.937-7.157l-54.834 54.716 57.59 63.464c-6.762 0-12.215.228-17.626-.15-1.478-.103-3.035-1.843-4.208-3.145l-42.025-46.792c-1.054-1.165-2.882-1.631-4.35-2.422-.626 1.6-1.778 3.194-1.794 4.801l-.084 41.48v6.279c-3.98 0-7.602.284-11.127-.175-1.046-.136-2.527-2.325-2.597-3.638-.293-5.482-.127-10.988-.127-16.486v-91.958-5.754h13.796v47.685l1.203.568 41.246-41.315z" />
  <path fill="#292929"
    d="M126.566 715.629l-10.858-25.582c-.685-1.494-3.038-3.124-4.648-3.151-14.315-.244-28.637-.245-42.951.001-1.61.028-3.952 1.673-4.651 3.175-3.856 8.28-7.521 16.667-10.802 25.189-1.501 3.898-3.58 5.534-7.734 5.033-2.743-.331-5.558-.063-9.595-.063L90.205 595.86l53.127 123.475c-10.046 2.344-14.354 1.384-16.766-3.707m-53.888-47.38l-2.008 5.232h38.335l-19.121-45.594-17.206 40.363z" />
  <path fill="#292929"
    d="M622.923 707.342c10.058.169 8.899-1.473 8.98 8.461.011 1.299-.177 2.6-.292 4.16h-60.943V602.296h60.539c.207.319.517.578.539.86.939 11.924.935 11.923-10.92 11.924-10.662 0-21.324-.019-31.985.022-2.068.008-4.683-.535-4.694 2.847l-.013 30.891h46.484c0 3.903.354 7.39-.205 10.723-.179 1.067-2.759 2.441-4.261 2.466-12.158.201-24.324.283-36.479.023-4.346-.093-5.779 1.149-5.682 5.617.282 12.958.1 25.926.1 39.673h38.833z" />
  <path fill="#292929"
    d="M703.437 617.083l-.043 102.718h-13.731v-5.92l.1-92.901c.03-4.783-1.305-6.525-6.168-6.236-6.138.365-12.319-.045-18.474.142-3.235.098-4.596-.987-4.341-4.296.203-2.626.041-5.281.041-8.303h70.746v12.545c-7.732 0-15.333-.106-22.927.08-1.733.042-3.441 1.092-5.204 2.171z" />
  <path fill="#292929"
    d="M266.832 673l.098-52.998c.057-4.261-1.3-5.429-5.388-5.269-7.457.292-14.934.083-22.75.083v-12.548h70.076c0 3.325.248 6.769-.161 10.134-.113.926-2.164 2.263-3.364 2.304-6.659.226-13.339.318-19.993.032-3.981-.171-5.083 1.178-5.065 5.115l.082 93.999v6.099h-13.535V673z" />
  <path fill="#292929"
    d="M171.095 678v-75.769h13.535v105.104h19.434 14.482c8.281 0 10.221 2.463 8.114 10.674-.232.904-1.701 2.123-2.604 2.13l-52.962.094V678z" />
  <path fill="#292929"
    d="M894.104 648.001l-.001 65.893c-.001 6.361-.009 6.361-6.585 6.362h-7.056V602.107h13.642v45.893z" />
  <path fill="#292929"
    d="M349.222 719.951c-.815-1.292-1.454-2.507-1.456-3.722l-.02-111.822c0-.636.158-1.273.279-2.187h12.754v117.808c-3.607 0-7.346 0-11.557-.076z" />
</svg>