<svg xmlns="http://www.w3.org/2000/svg" viewBox="0 0 548 180" xml:space="preserve"><path fill="none" d="M389 181H1V1h548v180H389m-240.158-70.501c0-13.654.108-27.31-.029-40.963-.15-14.989 2.425-12.446-13.009-12.713-.166-.003-.334.015-.5-.002-3.263-.328-4.43 1.193-4.355 4.393.148 6.324.044 12.654.044 18.981v18.953c-8.316-12.232-16.181-22.95-23.065-34.264-3.841-6.314-8.167-8.945-15.59-8.277-4.517.407-5.478 1.737-5.432 5.924.201 18.314.087 36.632.087 54.949 0 12.822-.001 12.698 12.666 12.604 3.718-.028 4.97-1.288 4.92-4.952-.157-11.487-.068-22.978-.042-34.468.002-1.196.217-2.391.438-4.665 8.857 12.993 17.49 24.766 25.087 37.174 3.812 6.227 8.597 7.829 14.905 6.673 1.477-.27 3.555-2.427 3.698-3.879.469-4.783.177-9.64.177-15.468m-120.255 4.07c1.512-.68 3.001-1.882 4.538-1.946 5.655-.236 11.338.134 16.986-.17 4.138-.223 5.471 1.099 5.462 5.35-.032 14.253-2.291 11.702 12.597 12.104 3.817.104 4.919-1.44 4.887-4.999-.116-13.161.167-26.329-.104-39.486-.32-15.523-13.776-28.92-29.1-29.431-17.001-.568-31.82 11.509-32.657 27.716-.73 14.125-.166 28.316-.22 42.477-.01 2.85 1.415 3.744 4.07 3.686 15.887-.35 13.206 2.464 13.483-12.824.009-.5.005-1 .058-2.478M408.17 97.434c0-11.153-.036-22.306.01-33.459.053-13.192.711-11.82-12.261-12.063-4.71-.089-6.048 1.739-5.99 6.174.186 13.98.176 27.966.034 41.947-.11 10.736-9.532 17-19.412 12.957-6.453-2.642-8.296-8.24-8.353-14.592-.1-11.152-.028-22.306-.028-33.459 0-13.56.003-13.471-13.875-13.01-3.015.1-4.295 1.24-4.288 4.083.041 15.645-.38 31.311.293 46.93.592 13.753 7.899 21.53 21.476 24.23 4.353.867 8.924 1.055 13.378.926 18.345-.53 28.712-11.254 29.016-30.664m94.67 30.569c2.663.054 5.33.222 7.989.144 18.07-.531 28.824-11.06 29.278-29.077.293-11.656.006-23.326.077-34.99.082-13.456.244-11.896-12.283-12.169-4.668-.101-6.062 1.566-5.986 6.099.23 13.659.129 27.324.064 40.987-.035 7.297-2.899 11.982-8.299 14.03-10.167 3.857-19.316-2.431-19.473-13.612-.164-11.66-.037-23.326-.037-34.99 0-12.494-.005-12.272-12.438-12.538-4.866-.105-5.89 1.758-5.814 6.144.223 12.993.078 25.991.08 38.988.002 17.871 8.201 27.653 26.842 30.984M163.46 125.09c-.56 4.115 1.523 5.034 5.264 4.99 13.98-.163 27.964-.065 41.946-.065 9.122 0 8.995.001 8.93-8.969-.026-3.578-1.107-5.094-4.91-4.97-7.317.237-14.647.154-21.97.05-13.77-.193-11.352 2.216-11.777-11.922-.12-3.95 1.539-4.818 5.022-4.717 6.154.18 12.317.014 18.475.055 5.187.033 3.939-3.77 4.095-6.742.159-3.032.069-5.808-4.2-5.68-3.99.122-7.989.025-11.984.025-11.423 0-11.244-.003-11.429-11.18-.068-4.146 1.174-5.607 5.363-5.5 9.315.236 18.654-.234 27.957.183 5.96.267 5.279-3.313 5.334-7.062.057-3.912.297-7.053-5.505-6.904-14.97.383-29.962.324-44.937.015-4.835-.1-5.801 1.658-5.76 6.052.194 20.472.086 40.946.086 62.341m96.026-68.265c-7.488 0-14.976.04-22.463-.021-2.514-.021-4.21.564-4.206 3.532.028 21.964-.024 43.928.124 65.89.008 1.237 1.524 3.494 2.397 3.523 4.59.154 9.485.547 13.642-.926 1.37-.485.85-6.302 1.19-9.68a2.399 2.399 0 0 0 0-.5c-.367-3.355.89-4.897 4.498-4.697 4.313.238 8.66.243 12.973-.004 10.754-.618 19.245-5.366 24.119-15.102 4.872-9.734 4.502-19.626-1.443-28.932-6.991-10.943-17.63-13.88-30.831-13.083m203.981 9.345h7.703v-7.515c-.004-6.653-.005-6.657-6.422-6.658-13.996-.003-27.992-.06-41.988.018-11.167.061-9.494-1.612-9.842 9.81-.114 3.717 1.353 4.531 4.661 4.398 5.1-.204 10.215-.053 15.582-.053v49.052c0 13.218 0 13.075 13.169 13.036 3.86-.011 4.765-1.416 4.736-4.987-.142-17.327-.07-34.656-.054-51.984.001-1.607.138-3.214.225-5.117h12.23M319.958 108.5v21.667l1.5.382c.477-.9 1.366-1.798 1.37-2.7.076-22.97.08-45.943-.005-68.914-.004-1.038-.956-2.072-1.466-3.108l-1.4.394V108.5z"/><path fill="#292929" d="M148.842 110.998c0 5.329.292 10.186-.177 14.97-.143 1.45-2.22 3.608-3.698 3.878-6.308 1.156-11.093-.446-14.905-6.673-7.597-12.408-16.23-24.181-25.087-37.174-.221 2.274-.436 3.47-.438 4.665-.026 11.49-.115 22.98.042 34.468.05 3.664-1.202 4.924-4.92 4.952-12.667.094-12.666.218-12.666-12.604 0-18.317.114-36.635-.087-54.95-.046-4.186.915-5.516 5.432-5.923 7.423-.668 11.749 1.963 15.59 8.277 6.884 11.314 14.75 22.032 23.065 34.264V80.195c0-6.327.104-12.657-.044-18.981-.075-3.2 1.092-4.72 4.356-4.393.165.017.333 0 .5.002 15.433.267 12.859-2.276 13.008 12.713.137 13.653.03 27.309.03 41.462z"/><path fill="#292929" d="M28.562 115.057c-.028.99-.024 1.49-.033 1.989-.277 15.288 2.404 12.473-13.482 12.824-2.656.058-4.081-.836-4.07-3.686.053-14.161-.51-28.352.22-42.477.837-16.207 15.655-28.284 32.656-27.716 15.324.512 28.78 13.908 29.1 29.431.271 13.157-.012 26.325.104 39.486.032 3.559-1.07 5.103-4.887 5-14.888-.403-12.629 2.148-12.597-12.105.01-4.251-1.324-5.573-5.462-5.35-5.648.304-11.331-.066-16.986.17-1.537.064-3.026 1.266-4.563 2.434m23.11-40.212c-4.193-4.124-9.154-5.298-14.588-3.19-5.018 1.946-8.118 5.796-8.478 11.25a98.242 98.242 0 0 0 .07 13.92c.091 1.179 1.94 3.13 3.049 3.178 6.788.297 13.597.223 20.395.073 1.07-.024 3.051-1.095 3.034-1.631-.25-7.765 2.581-15.97-3.481-23.6z"/><path fill="#292929" d="M408.17 97.92c-.304 18.924-10.671 29.648-29.016 30.178-4.454.129-9.025-.06-13.378-.925-13.577-2.701-20.884-10.478-21.476-24.231-.673-15.619-.252-31.285-.293-46.93-.007-2.842 1.273-3.983 4.288-4.083 13.878-.461 13.875-.55 13.875 13.01 0 11.153-.072 22.307.028 33.459.057 6.351 1.9 11.95 8.353 14.592 9.88 4.043 19.302-2.22 19.412-12.957.142-13.981.152-27.967-.034-41.947-.058-4.435 1.28-6.263 5.99-6.174 12.972.244 12.314-1.129 12.26 12.063-.045 11.153-.01 22.306-.01 33.946zM502.384 127.982c-18.185-3.31-26.384-13.092-26.386-30.963-.002-12.997.143-25.995-.08-38.988-.076-4.386.948-6.249 5.814-6.144 12.433.266 12.438.044 12.438 12.539 0 11.663-.127 23.328.037 34.99.157 11.18 9.306 17.468 19.473 13.611 5.4-2.048 8.264-6.733 8.299-14.03.065-13.663.165-27.328-.064-40.987-.076-4.533 1.318-6.2 5.986-6.099 12.527.273 12.365-1.287 12.283 12.17-.071 11.663.216 23.333-.077 34.989-.454 18.017-11.208 28.546-29.278 29.077-2.66.078-5.326-.09-8.445-.165z"/><path fill="#292929" d="M163.461 124.63c0-20.934.108-41.408-.086-61.88-.041-4.394.925-6.151 5.76-6.052 14.975.309 29.966.368 44.937-.015 5.802-.149 5.562 2.992 5.505 6.904-.055 3.749.626 7.33-5.334 7.062-9.303-.417-18.642.053-27.957-.184-4.189-.106-5.431 1.355-5.363 5.502.185 11.176.006 11.179 11.43 11.18 3.994 0 7.992.096 11.983-.025 4.269-.13 4.359 2.647 4.2 5.68-.156 2.971 1.092 6.774-4.095 6.74-6.158-.04-12.321.125-18.475-.054-3.483-.101-5.141.767-5.022 4.717.425 14.138-1.994 11.73 11.777 11.923 7.323.103 14.653.186 21.97-.051 3.803-.124 4.884 1.392 4.91 4.97.065 8.97.192 8.97-8.93 8.97-13.982 0-27.965-.1-41.946.064-3.74.044-5.824-.875-5.264-5.45z"/><path fill="#292929" d="M259.983 56.826c12.706-.797 23.344 2.14 30.335 13.083 5.945 9.306 6.315 19.198 1.443 28.932-4.874 9.736-13.365 14.484-24.12 15.102-4.311.247-8.66.242-12.972.004-3.608-.2-4.865 1.342-4.497 4.698.018.164.016.334 0 .498-.341 3.38.178 9.196-1.19 9.68-4.158 1.474-9.052 1.08-13.643.927-.873-.03-2.39-2.286-2.397-3.523-.148-21.962-.096-43.926-.124-65.89-.004-2.968 1.692-3.553 4.206-3.532 7.487.062 14.975.021 22.96.021m-9.818 33.604c.001 2.16-.38 4.417.135 6.446.347 1.366 1.9 3.364 3.014 3.433 4.45.274 9.014.369 13.398-.334 7.318-1.174 12.112-8.41 11.437-16.315-.586-6.858-6.564-12.584-13.58-12.843-3.484-.13-6.984.139-10.464-.025-3.147-.15-4.047 1.323-3.973 4.2.124 4.816.034 9.636.033 15.438z"/><path fill="#292929" d="M462.979 66.17h-11.74c-.088 1.904-.225 3.511-.226 5.118-.016 17.328-.088 34.657.054 51.984.03 3.571-.876 4.976-4.736 4.987-13.169.04-13.169.182-13.169-13.036V66.17c-5.367 0-10.481-.151-15.582.053-3.308.133-4.775-.681-4.661-4.399.348-11.421-1.325-9.748 9.842-9.81 13.996-.077 27.992-.02 41.988-.017 6.417 0 6.418.005 6.421 6.658.002 2.298 0 4.597 0 7.515h-8.191z"/><path fill="#292929" d="M319.958 108V56.22l1.399-.393c.51 1.036 1.462 2.07 1.466 3.108.085 22.971.081 45.943.005 68.915-.004.901-.893 1.8-1.37 2.7l-1.5-.383V108z"/></svg>