<svg width="152" height="186" viewBox="0 0 152 186" fill="none" xmlns="http://www.w3.org/2000/svg">
  <path fill-rule="evenodd" clip-rule="evenodd"
    d="M151.63 0H0V186H151.63V0ZM20.6651 79.4253V25.2716C20.6651 24.8912 23.022 24.8865 25.4076 24.8818H25.4077H25.4077H25.4077H25.4077C27.8519 24.877 30.3261 24.8721 30.3261 24.463V16.1739H17.1849C16.1741 16.1739 14.7155 16.6649 13.7624 17.2425C12.8382 17.7816 12.0728 18.6481 11.4663 19.8419C10.8598 20.9971 10.5565 22.5375 10.5565 24.463V81.9092C10.5565 84.1043 10.3544 85.6446 9.95001 86.5304C9.57454 87.3776 6.93167 90.6701 6.06521 90.9782C6.93167 91.2477 9.57454 94.5403 9.95001 95.426C10.3544 96.3117 10.5565 97.8521 10.5565 100.047V159.717C10.5565 161.604 10.8598 163.145 11.4663 164.338C12.0728 165.532 12.8382 166.399 13.7624 166.938C14.7155 167.516 15.6975 167.804 16.7084 167.804H30.3261V159.717C30.3261 159.303 27.7883 159.293 25.314 159.283H25.3136C22.9605 159.274 20.6651 159.265 20.6651 158.909V102.531C20.6651 101.26 20.6217 99.9123 20.5351 98.4874C20.4484 97.0626 20.2174 95.7533 19.8419 94.5595C19.4953 93.3272 18.9321 92.3259 18.1523 91.5557C17.9239 91.3302 17.6683 91.1376 17.3854 90.9781C17.6683 90.8186 17.9239 90.626 18.1523 90.4005C18.9321 89.6303 19.4953 88.6483 19.8419 87.4545C20.2174 86.2222 20.4484 84.8936 20.5351 83.4688C20.6217 82.0439 20.6651 80.6961 20.6651 79.4253ZM130.965 79.4253V25.2716C130.965 24.8912 128.608 24.8865 126.223 24.8818C123.779 24.877 121.304 24.8721 121.304 24.463V16.1739H134.445C135.456 16.1739 136.915 16.6649 137.868 17.2425C138.792 17.7816 139.558 18.6481 140.164 19.8419C140.771 20.9971 141.074 22.5375 141.074 24.463V81.9092C141.074 84.1043 141.276 85.6446 141.68 86.5304C142.056 87.3776 144.699 90.6701 145.565 90.9782C144.699 91.2477 142.056 94.5403 141.68 95.426C141.276 96.3117 141.074 97.8521 141.074 100.047V159.717C141.074 161.604 140.771 163.145 140.164 164.338C139.558 165.532 138.792 166.399 137.868 166.938C136.915 167.516 135.933 167.804 134.922 167.804H121.304V159.717C121.304 159.303 123.842 159.293 126.316 159.283H126.317C128.67 159.274 130.965 159.265 130.965 158.909V102.531C130.965 101.26 131.009 99.9123 131.095 98.4874C131.182 97.0626 131.413 95.7533 131.789 94.5595C132.135 93.3272 132.698 92.3259 133.478 91.5557C133.707 91.3302 133.962 91.1376 134.245 90.9781C133.962 90.8186 133.707 90.626 133.478 90.4005C132.698 89.6303 132.135 88.6483 131.789 87.4545C131.413 86.2222 131.182 84.8936 131.095 83.4688C131.009 82.0439 130.965 80.6961 130.965 79.4253ZM42.4568 167.804V16.1739L56.6089 16.174V167.804H42.4568ZM66.7174 16.174V167.804H80.8696V88.9565H109.174V74.8043H80.8696V30.3261H109.174V16.174H66.7174Z"
    fill="#292929" />
</svg>