<svg xmlns="http://www.w3.org/2000/svg" width="305.055" height="218.36" xml:space="preserve"><switch><g><path fill="#292929" d="M84.901 98.712a4.255 4.255 0 0 0-4.252 4.254v44.375a4.249 4.249 0 1 0 8.5 0v-44.375c0-2.345-1.9-4.254-4.248-4.254zM106.978 86.819H62.825a4.285 4.285 0 0 0-4.284 4.288 4.284 4.284 0 0 0 4.284 4.284h44.153a4.281 4.281 0 0 0 4.28-4.284 4.283 4.283 0 0 0-4.28-4.288zM160.217 86.819h-27.223a4.287 4.287 0 1 0 0 8.572h27.223a4.286 4.286 0 0 0 0-8.572zM121.16 86.853a4.252 4.252 0 0 0-4.249 4.254v56.234a4.25 4.25 0 1 0 8.498 0V91.107a4.253 4.253 0 0 0-4.249-4.254zM203.16 85.515c-16.608 0-31.109 12.029-33.035 27.39a4.254 4.254 0 0 0 4.223 4.777 4.25 4.25 0 0 0 4.21-3.724c1.397-11.184 12.207-19.945 24.602-19.945a25.205 25.205 0 0 1 19.104 8.758 4.251 4.251 0 0 0 6.44-5.55 33.7 33.7 0 0 0-25.544-11.706zM21.179 142.269c-7.348-.914-12.675-8.1-12.675-17.09V91.107a4.252 4.252 0 1 0-8.504 0v34.072c0 13.346 8.465 24.077 20.126 25.523.181.025.365.039.532.039a4.24 4.24 0 0 0 4.209-3.728 4.248 4.248 0 0 0-3.688-4.744z"/><path fill="#292929" d="M291.956 25.252a3.4 3.4 0 0 0-3.398 3.401v23.854a3.4 3.4 0 1 0 6.802 0V28.653a3.4 3.4 0 0 0-3.404-3.401zM219.856 55.907a3.407 3.407 0 0 0 3.408-3.401V28.653a3.407 3.407 0 0 0-3.408-3.401 3.4 3.4 0 0 0-3.401 3.401v23.854a3.4 3.4 0 0 0 3.401 3.4zM285.975 12.391 265.321.459a3.398 3.398 0 0 0-4.645 1.238 3.404 3.404 0 0 0 1.248 4.651l20.65 11.932a3.371 3.371 0 0 0 1.691.456c1.178 0 2.322-.61 2.961-1.7a3.4 3.4 0 0 0-1.251-4.645zM249.898 74.817l-20.654-11.934a3.4 3.4 0 0 0-4.646 1.238 3.4 3.4 0 0 0 1.241 4.651l20.651 11.936c.528.307 1.12.459 1.695.459a3.42 3.42 0 0 0 2.954-1.704 3.406 3.406 0 0 0-1.241-4.646zM227.534 18.735a3.42 3.42 0 0 0 1.71-.456l20.657-11.932A3.403 3.403 0 0 0 246.49.458L225.839 12.39a3.393 3.393 0 0 0-1.241 4.644 3.384 3.384 0 0 0 2.936 1.701zM282.575 62.883l-20.65 11.934a3.397 3.397 0 0 0-1.242 4.646 3.4 3.4 0 0 0 2.947 1.704c.574 0 1.16-.152 1.691-.459l20.654-11.936a3.409 3.409 0 0 0 1.252-4.651 3.41 3.41 0 0 0-4.652-1.238zM255.905 4.438a3.394 3.394 0 0 0-3.396 3.401V31.69a3.398 3.398 0 0 0 3.396 3.405 3.403 3.403 0 0 0 3.406-3.405V7.839a3.4 3.4 0 0 0-3.406-3.401zM255.905 46.066a3.396 3.396 0 0 0-3.396 3.403V73.32a3.395 3.395 0 0 0 3.396 3.401 3.4 3.4 0 0 0 3.406-3.401V49.469a3.402 3.402 0 0 0-3.406-3.403zM263.608 39.542c.574 0 1.168-.147 1.689-.454l20.678-11.911a3.4 3.4 0 0 0 1.252-4.644 3.411 3.411 0 0 0-4.652-1.249l-20.668 11.911c-1.625.938-2.17 3.017-1.246 4.644a3.397 3.397 0 0 0 2.947 1.703zM246.512 42.071l-20.673 11.911a3.398 3.398 0 0 0-1.244 4.647 3.399 3.399 0 0 0 4.645 1.248l20.668-11.913a3.395 3.395 0 0 0 1.243-4.64 3.397 3.397 0 0 0-4.639-1.253zM249.908 33.196 229.24 21.285a3.402 3.402 0 0 0-4.646 1.249 3.396 3.396 0 0 0 1.244 4.644l20.673 11.911a3.391 3.391 0 0 0 4.64-1.249 3.398 3.398 0 0 0-1.243-4.644zM261.907 47.965l20.668 11.913a3.392 3.392 0 0 0 1.691.456 3.428 3.428 0 0 0 2.961-1.704 3.399 3.399 0 0 0-1.258-4.647l-20.672-11.911a3.398 3.398 0 0 0-4.637 1.254c-.923 1.625-.378 3.703 1.247 4.639z"/><path fill="#292929" d="M48.639 86.853a4.26 4.26 0 0 0-4.256 4.254v34.072c0 9.14-5.142 16.168-12.522 17.09a4.25 4.25 0 0 0-3.685 4.749 4.253 4.253 0 0 0 4.213 3.724c.177 0 .358-.014.536-.039 11.568-1.446 19.966-12.178 19.966-25.523V91.107a4.252 4.252 0 0 0-4.252-4.254zM203.16 152.994c-16.608 0-31.109-12.029-33.035-27.385a4.253 4.253 0 0 1 4.223-4.784c2.11 0 3.943 1.57 4.21 3.727 1.397 11.179 12.207 19.938 24.602 19.938a25.207 25.207 0 0 0 19.104-8.753 4.247 4.247 0 0 1 5.993-.446c1.784 1.531 1.976 4.217.447 6a33.721 33.721 0 0 1-25.544 11.703zM160.217 143.053h-27.223a4.287 4.287 0 1 0 0 8.575h27.223a4.288 4.288 0 0 0 0-8.575zM153.386 114.221h-20.392a4.286 4.286 0 1 0 0 8.571h20.392a4.287 4.287 0 0 0 4.284-4.284 4.287 4.287 0 0 0-4.284-4.287z"/><g fill="#292929"><path d="M16.496 194.072c0 1.104-.19 2.101-.569 2.989a6.69 6.69 0 0 1-1.553 2.265 6.879 6.879 0 0 1-2.33 1.438c-.898.336-1.873.505-2.925.505s-2.028-.169-2.925-.505a6.99 6.99 0 0 1-2.343-1.438 6.444 6.444 0 0 1-1.553-2.265c-.372-.889-.557-1.885-.557-2.989v-11.597h3.262v11.491c0 .451.068.92.207 1.412.138.491.367.944.687 1.359.319.414.741.755 1.268 1.021.526.268 1.177.402 1.954.402.776 0 1.428-.135 1.955-.402a3.671 3.671 0 0 0 1.269-1.021 4 4 0 0 0 .686-1.359c.139-.492.208-.961.208-1.412v-11.491h3.261v11.597zM20.224 188.375h2.951v1.993h.052c.293-.621.742-1.159 1.346-1.616.604-.458 1.423-.688 2.459-.688.828 0 1.531.139 2.11.416a3.963 3.963 0 0 1 1.41 1.086c.362.45.622.966.777 1.553.155.588.233 1.2.233 1.839v7.844h-3.107v-6.291c0-.345-.017-.729-.052-1.152-.035-.422-.125-.818-.271-1.19s-.376-.683-.687-.932c-.311-.251-.733-.376-1.268-.376-.518 0-.954.088-1.307.259-.354.174-.647.406-.88.699s-.401.63-.505 1.011a4.471 4.471 0 0 0-.156 1.189v6.783h-3.106v-12.427zM34.694 184.157c0-.501.185-.936.556-1.307s.842-.558 1.411-.558 1.048.179 1.437.532.583.797.583 1.332c0 .536-.194.979-.583 1.334-.388.353-.867.529-1.437.529s-1.04-.185-1.411-.556-.556-.805-.556-1.306zm.439 4.218h3.106v12.427h-3.106v-12.427zM40.129 188.375h3.391l3.314 8.698h.051l3.34-8.698h3.184l-4.893 12.427h-3.313l-5.074-12.427zM57.732 195.676c.104.932.466 1.657 1.087 2.175.622.517 1.373.775 2.252.775.777 0 1.428-.158 1.955-.478a5.41 5.41 0 0 0 1.385-1.205l2.227 1.683c-.726.898-1.537 1.537-2.434 1.915a7.142 7.142 0 0 1-2.822.571 7.445 7.445 0 0 1-2.64-.466 6.363 6.363 0 0 1-2.149-1.321 6.278 6.278 0 0 1-1.437-2.058c-.353-.803-.53-1.696-.53-2.68s.177-1.877.53-2.678a6.263 6.263 0 0 1 1.437-2.059 6.32 6.32 0 0 1 2.149-1.32 7.45 7.45 0 0 1 2.64-.467c.863 0 1.653.152 2.369.453a5.08 5.08 0 0 1 1.839 1.309c.508.569.906 1.272 1.19 2.109.284.836.427 1.8.427 2.886v.854h-9.475zm6.368-2.331c-.018-.913-.302-1.634-.855-2.161-.552-.524-1.319-.788-2.303-.788-.932 0-1.67.268-2.214.802-.543.535-.876 1.251-.996 2.147H64.1zM70.105 188.375h3.106v1.969h.051c.345-.727.836-1.285 1.475-1.684.639-.396 1.373-.596 2.201-.596.19 0 .375.018.557.053s.366.077.557.129v3.003c-.26-.069-.515-.125-.765-.168s-.496-.064-.737-.064c-.725 0-1.307.133-1.748.4-.44.269-.776.574-1.01.919-.232.347-.388.69-.466 1.035-.077.346-.116.604-.116.777v6.653h-3.106v-12.426zM89.26 197.125c0 .727-.151 1.34-.453 1.839a3.65 3.65 0 0 1-1.191 1.218 5.453 5.453 0 0 1-1.657.685 9.11 9.11 0 0 1-1.851.247h-.311c-.466 0-.893-.026-1.281-.078a7.797 7.797 0 0 1-1.113-.232 6.333 6.333 0 0 1-1.049-.415 13.72 13.72 0 0 1-1.139-.647l1.294-2.122a9.99 9.99 0 0 0 1.657.842c.552.215 1.199.324 1.941.324.224 0 .457-.026.699-.079a2.1 2.1 0 0 0 .66-.258c.198-.122.362-.273.492-.454s.194-.392.194-.634c0-.432-.164-.751-.492-.957-.328-.209-.742-.376-1.243-.507-.5-.129-1.04-.248-1.617-.361a6.253 6.253 0 0 1-1.618-.543 3.395 3.395 0 0 1-1.243-1.049c-.328-.448-.491-1.069-.491-1.864 0-.673.133-1.259.401-1.76.267-.501.625-.914 1.074-1.242s.962-.574 1.54-.738a7.346 7.346 0 0 1 1.799-.272h.26c.862.036 1.621.152 2.278.351a7.604 7.604 0 0 1 1.967.945l-1.243 2.096a14.083 14.083 0 0 0-.777-.362 6.94 6.94 0 0 0-.75-.271 6.99 6.99 0 0 0-.815-.194 5.428 5.428 0 0 0-.97-.078 2.77 2.77 0 0 0-1.126.351c-.353.198-.531.521-.531.97 0 .38.164.657.492.829.328.173.742.318 1.242.44.5.12 1.04.244 1.618.374a6.34 6.34 0 0 1 1.618.596c.5.269.915.635 1.243 1.1.328.461.492 1.1.492 1.91zM91.278 184.157c0-.501.186-.936.557-1.307.371-.371.841-.558 1.411-.558.569 0 1.048.179 1.436.532.389.354.583.797.583 1.332 0 .536-.194.979-.583 1.334-.388.353-.867.529-1.436.529-.57 0-1.041-.185-1.411-.556-.371-.37-.557-.805-.557-1.306zm.441 4.218h3.107v12.427h-3.107v-12.427zM108.234 198.938h-.052c-.449.761-1.053 1.312-1.812 1.656-.76.346-1.58.519-2.459.519-.966 0-1.825-.168-2.576-.505a5.772 5.772 0 0 1-1.928-1.386 5.926 5.926 0 0 1-1.217-2.07 7.722 7.722 0 0 1-.414-2.563c0-.914.146-1.768.439-2.563a6.37 6.37 0 0 1 1.23-2.07 5.716 5.716 0 0 1 1.902-1.386 5.83 5.83 0 0 1 2.434-.505c.586 0 1.104.062 1.553.182.448.12.845.276 1.191.467.345.189.638.393.88.606.241.218.44.428.596.636h.077v-7.48h3.106v18.327h-2.951v-1.865zm-7.352-4.35c0 .483.082.949.246 1.398.164.449.406.846.726 1.191.319.346.702.621 1.151.827.448.208.958.311 1.527.311s1.079-.103 1.528-.311a3.522 3.522 0 0 0 1.877-2.018c.164-.449.245-.915.245-1.398 0-.481-.082-.948-.245-1.397a3.508 3.508 0 0 0-.726-1.19 3.614 3.614 0 0 0-1.151-.829 3.624 3.624 0 0 0-1.528-.311c-.569 0-1.079.104-1.527.311a3.592 3.592 0 0 0-1.151.829c-.32.345-.562.742-.726 1.19a4.046 4.046 0 0 0-.246 1.397zM124.438 198.938h-.051c-.449.761-1.053 1.312-1.812 1.656a5.858 5.858 0 0 1-2.459.519c-.966 0-1.825-.168-2.575-.505a5.776 5.776 0 0 1-1.929-1.386 5.926 5.926 0 0 1-1.217-2.07 7.748 7.748 0 0 1-.414-2.563c0-.914.146-1.768.44-2.563a6.35 6.35 0 0 1 1.229-2.07 5.696 5.696 0 0 1 1.902-1.386 5.83 5.83 0 0 1 2.434-.505c.586 0 1.104.062 1.553.182.448.12.845.276 1.191.467.345.189.638.393.88.606.242.218.44.428.595.636h.078v-1.891h3.106v12.737h-2.951v-1.864zm-7.352-4.35c0 .483.083.949.247 1.398a3.508 3.508 0 0 0 1.876 2.018c.448.208.958.311 1.527.311.57 0 1.079-.103 1.527-.311a3.538 3.538 0 0 0 1.878-2.018c.164-.449.246-.915.246-1.398 0-.481-.082-.948-.246-1.397a3.508 3.508 0 0 0-.726-1.19 3.607 3.607 0 0 0-1.152-.829 3.62 3.62 0 0 0-1.527-.311c-.569 0-1.079.104-1.527.311a3.607 3.607 0 0 0-1.152.829 3.497 3.497 0 0 0-.724 1.19 4.047 4.047 0 0 0-.247 1.397zM140.54 198.938h-.052c-.449.761-1.053 1.312-1.812 1.656a5.862 5.862 0 0 1-2.459.519c-.966 0-1.825-.168-2.575-.505a5.787 5.787 0 0 1-1.929-1.386 5.908 5.908 0 0 1-1.216-2.07 7.748 7.748 0 0 1-.415-2.563c0-.914.146-1.768.44-2.563a6.353 6.353 0 0 1 1.23-2.07 5.69 5.69 0 0 1 1.903-1.386 5.826 5.826 0 0 1 2.433-.505c.586 0 1.104.062 1.553.182s.846.276 1.191.467c.345.189.638.393.88.606.241.218.44.428.595.636h.078v-7.48h3.106v18.327h-2.951v-1.865zm-7.352-4.35c0 .483.082.949.246 1.398s.406.846.725 1.191c.319.346.703.621 1.152.827.448.208.958.311 1.527.311.57 0 1.079-.103 1.528-.311a3.52 3.52 0 0 0 1.877-2.018c.163-.449.246-.915.246-1.398a4.07 4.07 0 0 0-.246-1.397 3.506 3.506 0 0 0-.725-1.19 3.618 3.618 0 0 0-1.152-.829 3.624 3.624 0 0 0-1.528-.311c-.569 0-1.079.104-1.527.311a3.607 3.607 0 0 0-1.152.829 3.515 3.515 0 0 0-.725 1.19 4.046 4.046 0 0 0-.246 1.397zM158.71 185.425h-5.618v-2.95h14.498v2.95h-5.618v15.377h-3.262v-15.377zM169.143 195.676c.103.932.465 1.657 1.088 2.175.621.517 1.371.775 2.251.775.778 0 1.428-.158 1.955-.478a5.44 5.44 0 0 0 1.384-1.205l2.228 1.683c-.726.898-1.537 1.537-2.433 1.915a7.158 7.158 0 0 1-2.823.571 7.455 7.455 0 0 1-2.641-.466 6.35 6.35 0 0 1-2.148-1.321 6.228 6.228 0 0 1-1.435-2.058c-.355-.803-.531-1.696-.531-2.68s.176-1.877.531-2.678a6.243 6.243 0 0 1 1.435-2.059 6.325 6.325 0 0 1 2.148-1.32 7.455 7.455 0 0 1 2.641-.467c.862 0 1.652.152 2.369.453a5.096 5.096 0 0 1 1.839 1.309c.507.569.906 1.272 1.19 2.109.285.836.427 1.8.427 2.886v.854h-9.475zm6.367-2.331c-.018-.913-.303-1.634-.854-2.161-.552-.524-1.319-.788-2.303-.788-.932 0-1.669.268-2.213.802-.545.535-.877 1.251-.997 2.147h6.367zM190.005 192.103a4.94 4.94 0 0 0-1.137-.905 2.454 2.454 0 0 0-1.217-.337c-.569 0-1.081.104-1.527.311a3.529 3.529 0 0 0-1.877 2.019 4.047 4.047 0 0 0-.247 1.397c0 .483.083.949.247 1.398s.405.846.724 1.191.705.621 1.153.827c.446.208.958.311 1.527.311.481 0 .932-.099 1.345-.298a2.91 2.91 0 0 0 1.063-.866l2.07 2.227a4.84 4.84 0 0 1-1.075.803 7.428 7.428 0 0 1-1.229.542 7.394 7.394 0 0 1-2.173.39 7.452 7.452 0 0 1-2.642-.466 6.345 6.345 0 0 1-2.147-1.321 6.25 6.25 0 0 1-1.438-2.058c-.353-.803-.529-1.696-.529-2.68s.177-1.877.529-2.678a6.265 6.265 0 0 1 1.438-2.059 6.32 6.32 0 0 1 2.147-1.32 7.453 7.453 0 0 1 2.642-.467c.793 0 1.59.152 2.394.453a5.433 5.433 0 0 1 2.109 1.438l-2.15 2.148zM193.993 188.375h2.95v1.993h.052c.294-.621.742-1.159 1.346-1.616.604-.458 1.425-.688 2.459-.688.829 0 1.533.139 2.111.416a3.968 3.968 0 0 1 1.409 1.086c.361.45.622.966.778 1.553.154.588.23 1.2.23 1.839v7.844h-3.105v-6.291c0-.345-.019-.729-.052-1.152a4.149 4.149 0 0 0-.271-1.19 2.235 2.235 0 0 0-.687-.932c-.312-.251-.733-.376-1.268-.376-.518 0-.955.088-1.308.259a2.512 2.512 0 0 0-.88.699c-.234.293-.402.63-.504 1.011a4.392 4.392 0 0 0-.157 1.189v6.783h-3.105v-12.427zM208.229 194.588c0-.983.175-1.877.529-2.678a6.265 6.265 0 0 1 1.438-2.059 6.306 6.306 0 0 1 2.148-1.32 7.444 7.444 0 0 1 2.641-.467c.932 0 1.813.156 2.639.467a6.34 6.34 0 0 1 2.15 1.32 6.25 6.25 0 0 1 1.436 2.059c.354.801.531 1.694.531 2.678s-.177 1.877-.531 2.68a6.256 6.256 0 0 1-1.436 2.058 6.342 6.342 0 0 1-2.15 1.321 7.432 7.432 0 0 1-2.639.466 7.443 7.443 0 0 1-2.641-.466 6.33 6.33 0 0 1-2.148-1.321c-.604-.568-1.084-1.255-1.438-2.058s-.529-1.696-.529-2.68zm3.107 0c0 .483.082.949.246 1.398a3.508 3.508 0 0 0 1.877 2.018c.447.208.957.311 1.527.311s1.078-.103 1.526-.311a3.515 3.515 0 0 0 1.875-2.018c.165-.449.248-.915.248-1.398 0-.481-.083-.948-.248-1.397a3.485 3.485 0 0 0-.723-1.19 3.607 3.607 0 0 0-1.152-.829c-.448-.206-.956-.311-1.526-.311s-1.08.104-1.527.311a3.529 3.529 0 0 0-1.877 2.019 4.046 4.046 0 0 0-.246 1.397zM224.692 182.475h3.105v18.327h-3.105v-18.327zM230.75 194.588c0-.983.176-1.877.529-2.678a6.238 6.238 0 0 1 1.439-2.059 6.292 6.292 0 0 1 2.147-1.32 7.444 7.444 0 0 1 2.641-.467c.932 0 1.812.156 2.639.467.829.311 1.544.75 2.149 1.32a6.252 6.252 0 0 1 1.437 2.059c.354.801.53 1.694.53 2.678s-.176 1.877-.53 2.68a6.258 6.258 0 0 1-1.437 2.058 6.338 6.338 0 0 1-2.149 1.321 7.436 7.436 0 0 1-2.639.466 7.443 7.443 0 0 1-2.641-.466 6.316 6.316 0 0 1-2.147-1.321c-.606-.568-1.086-1.255-1.439-2.058s-.529-1.696-.529-2.68zm3.105 0c0 .483.083.949.247 1.398.165.449.405.846.725 1.191a3.56 3.56 0 0 0 1.152.827c.447.208.957.311 1.527.311.569 0 1.078-.103 1.527-.311.446-.206.833-.481 1.151-.827s.559-.742.724-1.191c.164-.449.247-.915.247-1.398 0-.481-.083-.948-.247-1.397a3.52 3.52 0 0 0-.724-1.19 3.625 3.625 0 0 0-1.151-.829 3.622 3.622 0 0 0-1.527-.311c-.57 0-1.08.104-1.527.311a3.531 3.531 0 0 0-1.877 2.019 4.047 4.047 0 0 0-.247 1.397zm4.997-12.113h3.521l-3.65 3.727h-2.433l2.562-3.727zM259.948 188.375v11.314c0 1.121-.139 2.134-.412 3.04-.277.905-.705 1.674-1.281 2.304-.578.63-1.311 1.117-2.189 1.462-.879.346-1.926.519-3.131.519-1.158 0-2.254-.146-3.288-.438-1.036-.295-1.994-.83-2.875-1.606l1.865-2.537a7.605 7.605 0 0 0 1.941 1.321c.672.311 1.45.466 2.329.466.742 0 1.367-.104 1.879-.311.508-.209.912-.493 1.215-.855.301-.362.518-.798.648-1.307a6.91 6.91 0 0 0 .193-1.696v-.905h-.051a4.09 4.09 0 0 1-1.787 1.358 5.978 5.978 0 0 1-2.279.454c-.932 0-1.775-.169-2.536-.505a6.1 6.1 0 0 1-1.953-1.358 5.858 5.858 0 0 1-1.256-2.021 6.975 6.975 0 0 1-.439-2.485c0-.914.137-1.768.412-2.563.275-.793.682-1.484 1.217-2.07s1.178-1.048 1.929-1.386c.75-.336 1.609-.505 2.578-.505.879 0 1.697.174 2.457.518.76.347 1.363.898 1.811 1.656h.053v-1.863h2.95zm-6.627 2.486c-.551 0-1.053.092-1.5.272a3.447 3.447 0 0 0-1.153.751c-.32.32-.569.707-.751 1.163a4.093 4.093 0 0 0-.271 1.516c0 .501.09.967.271 1.398.182.431.437.811.763 1.138a3.6 3.6 0 0 0 1.167.776c.447.19.932.286 1.451.286.568 0 1.08-.096 1.539-.286a3.516 3.516 0 0 0 1.164-.764 3.31 3.31 0 0 0 .74-1.15c.17-.45.256-.933.256-1.45 0-1.086-.326-1.967-.984-2.641-.655-.672-1.554-1.009-2.692-1.009zM263.079 184.157c0-.501.188-.936.559-1.307.369-.371.84-.558 1.41-.558s1.049.179 1.436.532c.389.354.584.797.584 1.332 0 .536-.195.979-.584 1.334-.387.353-.865.529-1.436.529s-1.041-.185-1.41-.556c-.372-.37-.559-.805-.559-1.306zm.441 4.218h3.105v12.427h-3.105v-12.427zM278.688 192.103a4.962 4.962 0 0 0-1.137-.905 2.46 2.46 0 0 0-1.217-.337c-.57 0-1.08.104-1.527.311a3.531 3.531 0 0 0-1.877 2.019 4.048 4.048 0 0 0 0 2.795c.164.449.406.846.725 1.191s.703.621 1.152.827c.447.208.957.311 1.527.311.482 0 .932-.099 1.344-.298a2.912 2.912 0 0 0 1.064-.866l2.068 2.227a4.789 4.789 0 0 1-1.074.803 7.32 7.32 0 0 1-1.229.542 7.352 7.352 0 0 1-2.173.39 7.443 7.443 0 0 1-2.641-.466 6.32 6.32 0 0 1-2.148-1.321 6.236 6.236 0 0 1-1.438-2.058c-.355-.803-.531-1.696-.531-2.68s.176-1.877.531-2.678a6.236 6.236 0 0 1 1.438-2.059 6.297 6.297 0 0 1 2.148-1.32 7.444 7.444 0 0 1 2.641-.467 6.8 6.8 0 0 1 2.395.453 5.455 5.455 0 0 1 2.109 1.438l-2.15 2.148zM292.409 198.938h-.053c-.449.761-1.051 1.312-1.811 1.656a5.858 5.858 0 0 1-2.459.519c-.967 0-1.826-.168-2.576-.505a5.742 5.742 0 0 1-1.928-1.386 5.93 5.93 0 0 1-1.219-2.07 7.773 7.773 0 0 1-.414-2.563c0-.914.146-1.768.441-2.563.293-.793.703-1.484 1.229-2.07s1.16-1.048 1.902-1.386a5.83 5.83 0 0 1 2.434-.505c.588 0 1.104.062 1.553.182s.846.276 1.191.467c.346.189.639.393.879.606.242.218.441.428.596.636h.08v-1.891h3.105v12.737h-2.951v-1.864zm-7.352-4.35c0 .483.082.949.246 1.398.162.449.404.846.725 1.191s.703.621 1.152.827c.447.208.957.311 1.527.311.568 0 1.078-.103 1.527-.311a3.552 3.552 0 0 0 1.877-2.018c.162-.449.244-.915.244-1.398 0-.481-.082-.948-.244-1.397a3.48 3.48 0 0 0-.727-1.19 3.588 3.588 0 0 0-1.15-.829 3.626 3.626 0 0 0-1.527-.311c-.57 0-1.08.104-1.527.311a3.618 3.618 0 0 0-1.152.829c-.32.345-.563.742-.725 1.19a4.046 4.046 0 0 0-.246 1.397z"/></g></g></switch></svg>